<?xml version="1.0" encoding="utf-8" standalone="no"?>
<!DOCTYPE svg PUBLIC "-//W3C//DTD SVG 1.1//EN"
  "http://www.w3.org/Graphics/SVG/1.1/DTD/svg11.dtd">
<!-- Created with matplotlib (https://matplotlib.org/) -->
<svg height="360pt" version="1.1" viewBox="0 0 1440 360" width="1440pt" xmlns="http://www.w3.org/2000/svg" xmlns:xlink="http://www.w3.org/1999/xlink">
 <defs>
  <style type="text/css">
*{stroke-linecap:butt;stroke-linejoin:round;}
  </style>
 </defs>
 <g id="figure_1">
  <g id="patch_1">
   <path d="M 0 360 
L 1440 360 
L 1440 0 
L 0 0 
z
" style="fill:#ffffff;"/>
  </g>
  <g id="axes_1">
   <g id="patch_2">
    <path d="M 180 315 
L 1296 315 
L 1296 43.2 
L 180 43.2 
z
" style="fill:#ffffff;"/>
   </g>
   <g id="matplotlib.axis_1">
    <g id="xtick_1">
     <g id="line2d_1">
      <defs>
       <path d="M 0 0 
L 0 3.5 
" id="ma459090929" style="stroke:#000000;stroke-width:0.8;"/>
      </defs>
      <g>
       <use style="stroke:#000000;stroke-width:0.8;" x="230.727273" xlink:href="#ma459090929" y="315"/>
      </g>
     </g>
     <g id="text_1">
      <!-- E01026982 -->
      <defs>
       <path d="M 9.8125 72.90625 
L 55.90625 72.90625 
L 55.90625 64.59375 
L 19.671875 64.59375 
L 19.671875 43.015625 
L 54.390625 43.015625 
L 54.390625 34.71875 
L 19.671875 34.71875 
L 19.671875 8.296875 
L 56.78125 8.296875 
L 56.78125 0 
L 9.8125 0 
z
" id="DejaVuSans-69"/>
       <path d="M 31.78125 66.40625 
Q 24.171875 66.40625 20.328125 58.90625 
Q 16.5 51.421875 16.5 36.375 
Q 16.5 21.390625 20.328125 13.890625 
Q 24.171875 6.390625 31.78125 6.390625 
Q 39.453125 6.390625 43.28125 13.890625 
Q 47.125 21.390625 47.125 36.375 
Q 47.125 51.421875 43.28125 58.90625 
Q 39.453125 66.40625 31.78125 66.40625 
z
M 31.78125 74.21875 
Q 44.046875 74.21875 50.515625 64.515625 
Q 56.984375 54.828125 56.984375 36.375 
Q 56.984375 17.96875 50.515625 8.265625 
Q 44.046875 -1.421875 31.78125 -1.421875 
Q 19.53125 -1.421875 13.0625 8.265625 
Q 6.59375 17.96875 6.59375 36.375 
Q 6.59375 54.828125 13.0625 64.515625 
Q 19.53125 74.21875 31.78125 74.21875 
z
" id="DejaVuSans-48"/>
       <path d="M 12.40625 8.296875 
L 28.515625 8.296875 
L 28.515625 63.921875 
L 10.984375 60.40625 
L 10.984375 69.390625 
L 28.421875 72.90625 
L 38.28125 72.90625 
L 38.28125 8.296875 
L 54.390625 8.296875 
L 54.390625 0 
L 12.40625 0 
z
" id="DejaVuSans-49"/>
       <path d="M 19.1875 8.296875 
L 53.609375 8.296875 
L 53.609375 0 
L 7.328125 0 
L 7.328125 8.296875 
Q 12.9375 14.109375 22.625 23.890625 
Q 32.328125 33.6875 34.8125 36.53125 
Q 39.546875 41.84375 41.421875 45.53125 
Q 43.3125 49.21875 43.3125 52.78125 
Q 43.3125 58.59375 39.234375 62.25 
Q 35.15625 65.921875 28.609375 65.921875 
Q 23.96875 65.921875 18.8125 64.3125 
Q 13.671875 62.703125 7.8125 59.421875 
L 7.8125 69.390625 
Q 13.765625 71.78125 18.9375 73 
Q 24.125 74.21875 28.421875 74.21875 
Q 39.75 74.21875 46.484375 68.546875 
Q 53.21875 62.890625 53.21875 53.421875 
Q 53.21875 48.921875 51.53125 44.890625 
Q 49.859375 40.875 45.40625 35.40625 
Q 44.1875 33.984375 37.640625 27.21875 
Q 31.109375 20.453125 19.1875 8.296875 
z
" id="DejaVuSans-50"/>
       <path d="M 33.015625 40.375 
Q 26.375 40.375 22.484375 35.828125 
Q 18.609375 31.296875 18.609375 23.390625 
Q 18.609375 15.53125 22.484375 10.953125 
Q 26.375 6.390625 33.015625 6.390625 
Q 39.65625 6.390625 43.53125 10.953125 
Q 47.40625 15.53125 47.40625 23.390625 
Q 47.40625 31.296875 43.53125 35.828125 
Q 39.65625 40.375 33.015625 40.375 
z
M 52.59375 71.296875 
L 52.59375 62.3125 
Q 48.875 64.0625 45.09375 64.984375 
Q 41.3125 65.921875 37.59375 65.921875 
Q 27.828125 65.921875 22.671875 59.328125 
Q 17.53125 52.734375 16.796875 39.40625 
Q 19.671875 43.65625 24.015625 45.921875 
Q 28.375 48.1875 33.59375 48.1875 
Q 44.578125 48.1875 50.953125 41.515625 
Q 57.328125 34.859375 57.328125 23.390625 
Q 57.328125 12.15625 50.6875 5.359375 
Q 44.046875 -1.421875 33.015625 -1.421875 
Q 20.359375 -1.421875 13.671875 8.265625 
Q 6.984375 17.96875 6.984375 36.375 
Q 6.984375 53.65625 15.1875 63.9375 
Q 23.390625 74.21875 37.203125 74.21875 
Q 40.921875 74.21875 44.703125 73.484375 
Q 48.484375 72.75 52.59375 71.296875 
z
" id="DejaVuSans-54"/>
       <path d="M 10.984375 1.515625 
L 10.984375 10.5 
Q 14.703125 8.734375 18.5 7.8125 
Q 22.3125 6.890625 25.984375 6.890625 
Q 35.75 6.890625 40.890625 13.453125 
Q 46.046875 20.015625 46.78125 33.40625 
Q 43.953125 29.203125 39.59375 26.953125 
Q 35.25 24.703125 29.984375 24.703125 
Q 19.046875 24.703125 12.671875 31.3125 
Q 6.296875 37.9375 6.296875 49.421875 
Q 6.296875 60.640625 12.9375 67.421875 
Q 19.578125 74.21875 30.609375 74.21875 
Q 43.265625 74.21875 49.921875 64.515625 
Q 56.59375 54.828125 56.59375 36.375 
Q 56.59375 19.140625 48.40625 8.859375 
Q 40.234375 -1.421875 26.421875 -1.421875 
Q 22.703125 -1.421875 18.890625 -0.6875 
Q 15.09375 0.046875 10.984375 1.515625 
z
M 30.609375 32.421875 
Q 37.25 32.421875 41.125 36.953125 
Q 45.015625 41.5 45.015625 49.421875 
Q 45.015625 57.28125 41.125 61.84375 
Q 37.25 66.40625 30.609375 66.40625 
Q 23.96875 66.40625 20.09375 61.84375 
Q 16.21875 57.28125 16.21875 49.421875 
Q 16.21875 41.5 20.09375 36.953125 
Q 23.96875 32.421875 30.609375 32.421875 
z
" id="DejaVuSans-57"/>
       <path d="M 31.78125 34.625 
Q 24.75 34.625 20.71875 30.859375 
Q 16.703125 27.09375 16.703125 20.515625 
Q 16.703125 13.921875 20.71875 10.15625 
Q 24.75 6.390625 31.78125 6.390625 
Q 38.8125 6.390625 42.859375 10.171875 
Q 46.921875 13.96875 46.921875 20.515625 
Q 46.921875 27.09375 42.890625 30.859375 
Q 38.875 34.625 31.78125 34.625 
z
M 21.921875 38.8125 
Q 15.578125 40.375 12.03125 44.71875 
Q 8.5 49.078125 8.5 55.328125 
Q 8.5 64.0625 14.71875 69.140625 
Q 20.953125 74.21875 31.78125 74.21875 
Q 42.671875 74.21875 48.875 69.140625 
Q 55.078125 64.0625 55.078125 55.328125 
Q 55.078125 49.078125 51.53125 44.71875 
Q 48 40.375 41.703125 38.8125 
Q 48.828125 37.15625 52.796875 32.3125 
Q 56.78125 27.484375 56.78125 20.515625 
Q 56.78125 9.90625 50.3125 4.234375 
Q 43.84375 -1.421875 31.78125 -1.421875 
Q 19.734375 -1.421875 13.25 4.234375 
Q 6.78125 9.90625 6.78125 20.515625 
Q 6.78125 27.484375 10.78125 32.3125 
Q 14.796875 37.15625 21.921875 38.8125 
z
M 18.3125 54.390625 
Q 18.3125 48.734375 21.84375 45.5625 
Q 25.390625 42.390625 31.78125 42.390625 
Q 38.140625 42.390625 41.71875 45.5625 
Q 45.3125 48.734375 45.3125 54.390625 
Q 45.3125 60.0625 41.71875 63.234375 
Q 38.140625 66.40625 31.78125 66.40625 
Q 25.390625 66.40625 21.84375 63.234375 
Q 18.3125 60.0625 18.3125 54.390625 
z
" id="DejaVuSans-56"/>
      </defs>
      <g transform="translate(233.762585 384.940625)rotate(-90)scale(0.11 -0.11)">
       <use xlink:href="#DejaVuSans-69"/>
       <use x="63.183594" xlink:href="#DejaVuSans-48"/>
       <use x="126.806641" xlink:href="#DejaVuSans-49"/>
       <use x="190.429688" xlink:href="#DejaVuSans-48"/>
       <use x="254.052734" xlink:href="#DejaVuSans-50"/>
       <use x="317.675781" xlink:href="#DejaVuSans-54"/>
       <use x="381.298828" xlink:href="#DejaVuSans-57"/>
       <use x="444.921875" xlink:href="#DejaVuSans-56"/>
       <use x="508.544922" xlink:href="#DejaVuSans-50"/>
      </g>
     </g>
    </g>
    <g id="xtick_2">
     <g id="line2d_2">
      <g>
       <use style="stroke:#000000;stroke-width:0.8;" x="255.472284" xlink:href="#ma459090929" y="315"/>
      </g>
     </g>
     <g id="text_2">
      <!-- E01026984 -->
      <defs>
       <path d="M 37.796875 64.3125 
L 12.890625 25.390625 
L 37.796875 25.390625 
z
M 35.203125 72.90625 
L 47.609375 72.90625 
L 47.609375 25.390625 
L 58.015625 25.390625 
L 58.015625 17.1875 
L 47.609375 17.1875 
L 47.609375 0 
L 37.796875 0 
L 37.796875 17.1875 
L 4.890625 17.1875 
L 4.890625 26.703125 
z
" id="DejaVuSans-52"/>
      </defs>
      <g transform="translate(258.507596 384.940625)rotate(-90)scale(0.11 -0.11)">
       <use xlink:href="#DejaVuSans-69"/>
       <use x="63.183594" xlink:href="#DejaVuSans-48"/>
       <use x="126.806641" xlink:href="#DejaVuSans-49"/>
       <use x="190.429688" xlink:href="#DejaVuSans-48"/>
       <use x="254.052734" xlink:href="#DejaVuSans-50"/>
       <use x="317.675781" xlink:href="#DejaVuSans-54"/>
       <use x="381.298828" xlink:href="#DejaVuSans-57"/>
       <use x="444.921875" xlink:href="#DejaVuSans-56"/>
       <use x="508.544922" xlink:href="#DejaVuSans-52"/>
      </g>
     </g>
    </g>
    <g id="xtick_3">
     <g id="line2d_3">
      <g>
       <use style="stroke:#000000;stroke-width:0.8;" x="280.217295" xlink:href="#ma459090929" y="315"/>
      </g>
     </g>
     <g id="text_3">
      <!-- E01026962 -->
      <g transform="translate(283.252607 384.940625)rotate(-90)scale(0.11 -0.11)">
       <use xlink:href="#DejaVuSans-69"/>
       <use x="63.183594" xlink:href="#DejaVuSans-48"/>
       <use x="126.806641" xlink:href="#DejaVuSans-49"/>
       <use x="190.429688" xlink:href="#DejaVuSans-48"/>
       <use x="254.052734" xlink:href="#DejaVuSans-50"/>
       <use x="317.675781" xlink:href="#DejaVuSans-54"/>
       <use x="381.298828" xlink:href="#DejaVuSans-57"/>
       <use x="444.921875" xlink:href="#DejaVuSans-54"/>
       <use x="508.544922" xlink:href="#DejaVuSans-50"/>
      </g>
     </g>
    </g>
    <g id="xtick_4">
     <g id="line2d_4">
      <g>
       <use style="stroke:#000000;stroke-width:0.8;" x="304.962306" xlink:href="#ma459090929" y="315"/>
      </g>
     </g>
     <g id="text_4">
      <!-- E01026977 -->
      <defs>
       <path d="M 8.203125 72.90625 
L 55.078125 72.90625 
L 55.078125 68.703125 
L 28.609375 0 
L 18.3125 0 
L 43.21875 64.59375 
L 8.203125 64.59375 
z
" id="DejaVuSans-55"/>
      </defs>
      <g transform="translate(307.997618 384.940625)rotate(-90)scale(0.11 -0.11)">
       <use xlink:href="#DejaVuSans-69"/>
       <use x="63.183594" xlink:href="#DejaVuSans-48"/>
       <use x="126.806641" xlink:href="#DejaVuSans-49"/>
       <use x="190.429688" xlink:href="#DejaVuSans-48"/>
       <use x="254.052734" xlink:href="#DejaVuSans-50"/>
       <use x="317.675781" xlink:href="#DejaVuSans-54"/>
       <use x="381.298828" xlink:href="#DejaVuSans-57"/>
       <use x="444.921875" xlink:href="#DejaVuSans-55"/>
       <use x="508.544922" xlink:href="#DejaVuSans-55"/>
      </g>
     </g>
    </g>
    <g id="xtick_5">
     <g id="line2d_5">
      <g>
       <use style="stroke:#000000;stroke-width:0.8;" x="329.707317" xlink:href="#ma459090929" y="315"/>
      </g>
     </g>
     <g id="text_5">
      <!-- E01026973 -->
      <defs>
       <path d="M 40.578125 39.3125 
Q 47.65625 37.796875 51.625 33 
Q 55.609375 28.21875 55.609375 21.1875 
Q 55.609375 10.40625 48.1875 4.484375 
Q 40.765625 -1.421875 27.09375 -1.421875 
Q 22.515625 -1.421875 17.65625 -0.515625 
Q 12.796875 0.390625 7.625 2.203125 
L 7.625 11.71875 
Q 11.71875 9.328125 16.59375 8.109375 
Q 21.484375 6.890625 26.8125 6.890625 
Q 36.078125 6.890625 40.9375 10.546875 
Q 45.796875 14.203125 45.796875 21.1875 
Q 45.796875 27.640625 41.28125 31.265625 
Q 36.765625 34.90625 28.71875 34.90625 
L 20.21875 34.90625 
L 20.21875 43.015625 
L 29.109375 43.015625 
Q 36.375 43.015625 40.234375 45.921875 
Q 44.09375 48.828125 44.09375 54.296875 
Q 44.09375 59.90625 40.109375 62.90625 
Q 36.140625 65.921875 28.71875 65.921875 
Q 24.65625 65.921875 20.015625 65.03125 
Q 15.375 64.15625 9.8125 62.3125 
L 9.8125 71.09375 
Q 15.4375 72.65625 20.34375 73.4375 
Q 25.25 74.21875 29.59375 74.21875 
Q 40.828125 74.21875 47.359375 69.109375 
Q 53.90625 64.015625 53.90625 55.328125 
Q 53.90625 49.265625 50.4375 45.09375 
Q 46.96875 40.921875 40.578125 39.3125 
z
" id="DejaVuSans-51"/>
      </defs>
      <g transform="translate(332.74263 384.940625)rotate(-90)scale(0.11 -0.11)">
       <use xlink:href="#DejaVuSans-69"/>
       <use x="63.183594" xlink:href="#DejaVuSans-48"/>
       <use x="126.806641" xlink:href="#DejaVuSans-49"/>
       <use x="190.429688" xlink:href="#DejaVuSans-48"/>
       <use x="254.052734" xlink:href="#DejaVuSans-50"/>
       <use x="317.675781" xlink:href="#DejaVuSans-54"/>
       <use x="381.298828" xlink:href="#DejaVuSans-57"/>
       <use x="444.921875" xlink:href="#DejaVuSans-55"/>
       <use x="508.544922" xlink:href="#DejaVuSans-51"/>
      </g>
     </g>
    </g>
    <g id="xtick_6">
     <g id="line2d_6">
      <g>
       <use style="stroke:#000000;stroke-width:0.8;" x="354.452328" xlink:href="#ma459090929" y="315"/>
      </g>
     </g>
     <g id="text_6">
      <!-- E01026985 -->
      <defs>
       <path d="M 10.796875 72.90625 
L 49.515625 72.90625 
L 49.515625 64.59375 
L 19.828125 64.59375 
L 19.828125 46.734375 
Q 21.96875 47.46875 24.109375 47.828125 
Q 26.265625 48.1875 28.421875 48.1875 
Q 40.625 48.1875 47.75 41.5 
Q 54.890625 34.8125 54.890625 23.390625 
Q 54.890625 11.625 47.5625 5.09375 
Q 40.234375 -1.421875 26.90625 -1.421875 
Q 22.3125 -1.421875 17.546875 -0.640625 
Q 12.796875 0.140625 7.71875 1.703125 
L 7.71875 11.625 
Q 12.109375 9.234375 16.796875 8.0625 
Q 21.484375 6.890625 26.703125 6.890625 
Q 35.15625 6.890625 40.078125 11.328125 
Q 45.015625 15.765625 45.015625 23.390625 
Q 45.015625 31 40.078125 35.4375 
Q 35.15625 39.890625 26.703125 39.890625 
Q 22.75 39.890625 18.8125 39.015625 
Q 14.890625 38.140625 10.796875 36.28125 
z
" id="DejaVuSans-53"/>
      </defs>
      <g transform="translate(357.487641 384.940625)rotate(-90)scale(0.11 -0.11)">
       <use xlink:href="#DejaVuSans-69"/>
       <use x="63.183594" xlink:href="#DejaVuSans-48"/>
       <use x="126.806641" xlink:href="#DejaVuSans-49"/>
       <use x="190.429688" xlink:href="#DejaVuSans-48"/>
       <use x="254.052734" xlink:href="#DejaVuSans-50"/>
       <use x="317.675781" xlink:href="#DejaVuSans-54"/>
       <use x="381.298828" xlink:href="#DejaVuSans-57"/>
       <use x="444.921875" xlink:href="#DejaVuSans-56"/>
       <use x="508.544922" xlink:href="#DejaVuSans-53"/>
      </g>
     </g>
    </g>
    <g id="xtick_7">
     <g id="line2d_7">
      <g>
       <use style="stroke:#000000;stroke-width:0.8;" x="379.197339" xlink:href="#ma459090929" y="315"/>
      </g>
     </g>
     <g id="text_7">
      <!-- E01026950 -->
      <g transform="translate(382.232652 384.940625)rotate(-90)scale(0.11 -0.11)">
       <use xlink:href="#DejaVuSans-69"/>
       <use x="63.183594" xlink:href="#DejaVuSans-48"/>
       <use x="126.806641" xlink:href="#DejaVuSans-49"/>
       <use x="190.429688" xlink:href="#DejaVuSans-48"/>
       <use x="254.052734" xlink:href="#DejaVuSans-50"/>
       <use x="317.675781" xlink:href="#DejaVuSans-54"/>
       <use x="381.298828" xlink:href="#DejaVuSans-57"/>
       <use x="444.921875" xlink:href="#DejaVuSans-53"/>
       <use x="508.544922" xlink:href="#DejaVuSans-48"/>
      </g>
     </g>
    </g>
    <g id="xtick_8">
     <g id="line2d_8">
      <g>
       <use style="stroke:#000000;stroke-width:0.8;" x="403.94235" xlink:href="#ma459090929" y="315"/>
      </g>
     </g>
     <g id="text_8">
      <!-- E01026956 -->
      <g transform="translate(406.977663 384.940625)rotate(-90)scale(0.11 -0.11)">
       <use xlink:href="#DejaVuSans-69"/>
       <use x="63.183594" xlink:href="#DejaVuSans-48"/>
       <use x="126.806641" xlink:href="#DejaVuSans-49"/>
       <use x="190.429688" xlink:href="#DejaVuSans-48"/>
       <use x="254.052734" xlink:href="#DejaVuSans-50"/>
       <use x="317.675781" xlink:href="#DejaVuSans-54"/>
       <use x="381.298828" xlink:href="#DejaVuSans-57"/>
       <use x="444.921875" xlink:href="#DejaVuSans-53"/>
       <use x="508.544922" xlink:href="#DejaVuSans-54"/>
      </g>
     </g>
    </g>
    <g id="xtick_9">
     <g id="line2d_9">
      <g>
       <use style="stroke:#000000;stroke-width:0.8;" x="428.687361" xlink:href="#ma459090929" y="315"/>
      </g>
     </g>
     <g id="text_9">
      <!-- E01026960 -->
      <g transform="translate(431.722674 384.940625)rotate(-90)scale(0.11 -0.11)">
       <use xlink:href="#DejaVuSans-69"/>
       <use x="63.183594" xlink:href="#DejaVuSans-48"/>
       <use x="126.806641" xlink:href="#DejaVuSans-49"/>
       <use x="190.429688" xlink:href="#DejaVuSans-48"/>
       <use x="254.052734" xlink:href="#DejaVuSans-50"/>
       <use x="317.675781" xlink:href="#DejaVuSans-54"/>
       <use x="381.298828" xlink:href="#DejaVuSans-57"/>
       <use x="444.921875" xlink:href="#DejaVuSans-54"/>
       <use x="508.544922" xlink:href="#DejaVuSans-48"/>
      </g>
     </g>
    </g>
    <g id="xtick_10">
     <g id="line2d_10">
      <g>
       <use style="stroke:#000000;stroke-width:0.8;" x="453.432373" xlink:href="#ma459090929" y="315"/>
      </g>
     </g>
     <g id="text_10">
      <!-- E01026969 -->
      <g transform="translate(456.467685 384.940625)rotate(-90)scale(0.11 -0.11)">
       <use xlink:href="#DejaVuSans-69"/>
       <use x="63.183594" xlink:href="#DejaVuSans-48"/>
       <use x="126.806641" xlink:href="#DejaVuSans-49"/>
       <use x="190.429688" xlink:href="#DejaVuSans-48"/>
       <use x="254.052734" xlink:href="#DejaVuSans-50"/>
       <use x="317.675781" xlink:href="#DejaVuSans-54"/>
       <use x="381.298828" xlink:href="#DejaVuSans-57"/>
       <use x="444.921875" xlink:href="#DejaVuSans-54"/>
       <use x="508.544922" xlink:href="#DejaVuSans-57"/>
      </g>
     </g>
    </g>
    <g id="xtick_11">
     <g id="line2d_11">
      <g>
       <use style="stroke:#000000;stroke-width:0.8;" x="478.177384" xlink:href="#ma459090929" y="315"/>
      </g>
     </g>
     <g id="text_11">
      <!-- E01026972 -->
      <g transform="translate(481.212696 384.940625)rotate(-90)scale(0.11 -0.11)">
       <use xlink:href="#DejaVuSans-69"/>
       <use x="63.183594" xlink:href="#DejaVuSans-48"/>
       <use x="126.806641" xlink:href="#DejaVuSans-49"/>
       <use x="190.429688" xlink:href="#DejaVuSans-48"/>
       <use x="254.052734" xlink:href="#DejaVuSans-50"/>
       <use x="317.675781" xlink:href="#DejaVuSans-54"/>
       <use x="381.298828" xlink:href="#DejaVuSans-57"/>
       <use x="444.921875" xlink:href="#DejaVuSans-55"/>
       <use x="508.544922" xlink:href="#DejaVuSans-50"/>
      </g>
     </g>
    </g>
    <g id="xtick_12">
     <g id="line2d_12">
      <g>
       <use style="stroke:#000000;stroke-width:0.8;" x="502.922395" xlink:href="#ma459090929" y="315"/>
      </g>
     </g>
     <g id="text_12">
      <!-- E01026949 -->
      <g transform="translate(505.957707 384.940625)rotate(-90)scale(0.11 -0.11)">
       <use xlink:href="#DejaVuSans-69"/>
       <use x="63.183594" xlink:href="#DejaVuSans-48"/>
       <use x="126.806641" xlink:href="#DejaVuSans-49"/>
       <use x="190.429688" xlink:href="#DejaVuSans-48"/>
       <use x="254.052734" xlink:href="#DejaVuSans-50"/>
       <use x="317.675781" xlink:href="#DejaVuSans-54"/>
       <use x="381.298828" xlink:href="#DejaVuSans-57"/>
       <use x="444.921875" xlink:href="#DejaVuSans-52"/>
       <use x="508.544922" xlink:href="#DejaVuSans-57"/>
      </g>
     </g>
    </g>
    <g id="xtick_13">
     <g id="line2d_13">
      <g>
       <use style="stroke:#000000;stroke-width:0.8;" x="527.667406" xlink:href="#ma459090929" y="315"/>
      </g>
     </g>
     <g id="text_13">
      <!-- E01026968 -->
      <g transform="translate(530.702718 384.940625)rotate(-90)scale(0.11 -0.11)">
       <use xlink:href="#DejaVuSans-69"/>
       <use x="63.183594" xlink:href="#DejaVuSans-48"/>
       <use x="126.806641" xlink:href="#DejaVuSans-49"/>
       <use x="190.429688" xlink:href="#DejaVuSans-48"/>
       <use x="254.052734" xlink:href="#DejaVuSans-50"/>
       <use x="317.675781" xlink:href="#DejaVuSans-54"/>
       <use x="381.298828" xlink:href="#DejaVuSans-57"/>
       <use x="444.921875" xlink:href="#DejaVuSans-54"/>
       <use x="508.544922" xlink:href="#DejaVuSans-56"/>
      </g>
     </g>
    </g>
    <g id="xtick_14">
     <g id="line2d_14">
      <g>
       <use style="stroke:#000000;stroke-width:0.8;" x="552.412417" xlink:href="#ma459090929" y="315"/>
      </g>
     </g>
     <g id="text_14">
      <!-- E01026980 -->
      <g transform="translate(555.447729 384.940625)rotate(-90)scale(0.11 -0.11)">
       <use xlink:href="#DejaVuSans-69"/>
       <use x="63.183594" xlink:href="#DejaVuSans-48"/>
       <use x="126.806641" xlink:href="#DejaVuSans-49"/>
       <use x="190.429688" xlink:href="#DejaVuSans-48"/>
       <use x="254.052734" xlink:href="#DejaVuSans-50"/>
       <use x="317.675781" xlink:href="#DejaVuSans-54"/>
       <use x="381.298828" xlink:href="#DejaVuSans-57"/>
       <use x="444.921875" xlink:href="#DejaVuSans-56"/>
       <use x="508.544922" xlink:href="#DejaVuSans-48"/>
      </g>
     </g>
    </g>
    <g id="xtick_15">
     <g id="line2d_15">
      <g>
       <use style="stroke:#000000;stroke-width:0.8;" x="577.157428" xlink:href="#ma459090929" y="315"/>
      </g>
     </g>
     <g id="text_15">
      <!-- E01032963 -->
      <g transform="translate(580.19274 384.940625)rotate(-90)scale(0.11 -0.11)">
       <use xlink:href="#DejaVuSans-69"/>
       <use x="63.183594" xlink:href="#DejaVuSans-48"/>
       <use x="126.806641" xlink:href="#DejaVuSans-49"/>
       <use x="190.429688" xlink:href="#DejaVuSans-48"/>
       <use x="254.052734" xlink:href="#DejaVuSans-51"/>
       <use x="317.675781" xlink:href="#DejaVuSans-50"/>
       <use x="381.298828" xlink:href="#DejaVuSans-57"/>
       <use x="444.921875" xlink:href="#DejaVuSans-54"/>
       <use x="508.544922" xlink:href="#DejaVuSans-51"/>
      </g>
     </g>
    </g>
    <g id="xtick_16">
     <g id="line2d_16">
      <g>
       <use style="stroke:#000000;stroke-width:0.8;" x="601.902439" xlink:href="#ma459090929" y="315"/>
      </g>
     </g>
     <g id="text_16">
      <!-- E01027045 -->
      <g transform="translate(604.937752 384.940625)rotate(-90)scale(0.11 -0.11)">
       <use xlink:href="#DejaVuSans-69"/>
       <use x="63.183594" xlink:href="#DejaVuSans-48"/>
       <use x="126.806641" xlink:href="#DejaVuSans-49"/>
       <use x="190.429688" xlink:href="#DejaVuSans-48"/>
       <use x="254.052734" xlink:href="#DejaVuSans-50"/>
       <use x="317.675781" xlink:href="#DejaVuSans-55"/>
       <use x="381.298828" xlink:href="#DejaVuSans-48"/>
       <use x="444.921875" xlink:href="#DejaVuSans-52"/>
       <use x="508.544922" xlink:href="#DejaVuSans-53"/>
      </g>
     </g>
    </g>
    <g id="xtick_17">
     <g id="line2d_17">
      <g>
       <use style="stroke:#000000;stroke-width:0.8;" x="626.64745" xlink:href="#ma459090929" y="315"/>
      </g>
     </g>
     <g id="text_17">
      <!-- E01026957 -->
      <g transform="translate(629.682763 384.940625)rotate(-90)scale(0.11 -0.11)">
       <use xlink:href="#DejaVuSans-69"/>
       <use x="63.183594" xlink:href="#DejaVuSans-48"/>
       <use x="126.806641" xlink:href="#DejaVuSans-49"/>
       <use x="190.429688" xlink:href="#DejaVuSans-48"/>
       <use x="254.052734" xlink:href="#DejaVuSans-50"/>
       <use x="317.675781" xlink:href="#DejaVuSans-54"/>
       <use x="381.298828" xlink:href="#DejaVuSans-57"/>
       <use x="444.921875" xlink:href="#DejaVuSans-53"/>
       <use x="508.544922" xlink:href="#DejaVuSans-55"/>
      </g>
     </g>
    </g>
    <g id="xtick_18">
     <g id="line2d_18">
      <g>
       <use style="stroke:#000000;stroke-width:0.8;" x="651.392461" xlink:href="#ma459090929" y="315"/>
      </g>
     </g>
     <g id="text_18">
      <!-- E01026958 -->
      <g transform="translate(654.427774 384.940625)rotate(-90)scale(0.11 -0.11)">
       <use xlink:href="#DejaVuSans-69"/>
       <use x="63.183594" xlink:href="#DejaVuSans-48"/>
       <use x="126.806641" xlink:href="#DejaVuSans-49"/>
       <use x="190.429688" xlink:href="#DejaVuSans-48"/>
       <use x="254.052734" xlink:href="#DejaVuSans-50"/>
       <use x="317.675781" xlink:href="#DejaVuSans-54"/>
       <use x="381.298828" xlink:href="#DejaVuSans-57"/>
       <use x="444.921875" xlink:href="#DejaVuSans-53"/>
       <use x="508.544922" xlink:href="#DejaVuSans-56"/>
      </g>
     </g>
    </g>
    <g id="xtick_19">
     <g id="line2d_19">
      <g>
       <use style="stroke:#000000;stroke-width:0.8;" x="676.137472" xlink:href="#ma459090929" y="315"/>
      </g>
     </g>
     <g id="text_19">
      <!-- E01026966 -->
      <g transform="translate(679.172785 384.940625)rotate(-90)scale(0.11 -0.11)">
       <use xlink:href="#DejaVuSans-69"/>
       <use x="63.183594" xlink:href="#DejaVuSans-48"/>
       <use x="126.806641" xlink:href="#DejaVuSans-49"/>
       <use x="190.429688" xlink:href="#DejaVuSans-48"/>
       <use x="254.052734" xlink:href="#DejaVuSans-50"/>
       <use x="317.675781" xlink:href="#DejaVuSans-54"/>
       <use x="381.298828" xlink:href="#DejaVuSans-57"/>
       <use x="444.921875" xlink:href="#DejaVuSans-54"/>
       <use x="508.544922" xlink:href="#DejaVuSans-54"/>
      </g>
     </g>
    </g>
    <g id="xtick_20">
     <g id="line2d_20">
      <g>
       <use style="stroke:#000000;stroke-width:0.8;" x="700.882483" xlink:href="#ma459090929" y="315"/>
      </g>
     </g>
     <g id="text_20">
      <!-- E01026967 -->
      <g transform="translate(703.917796 384.940625)rotate(-90)scale(0.11 -0.11)">
       <use xlink:href="#DejaVuSans-69"/>
       <use x="63.183594" xlink:href="#DejaVuSans-48"/>
       <use x="126.806641" xlink:href="#DejaVuSans-49"/>
       <use x="190.429688" xlink:href="#DejaVuSans-48"/>
       <use x="254.052734" xlink:href="#DejaVuSans-50"/>
       <use x="317.675781" xlink:href="#DejaVuSans-54"/>
       <use x="381.298828" xlink:href="#DejaVuSans-57"/>
       <use x="444.921875" xlink:href="#DejaVuSans-54"/>
       <use x="508.544922" xlink:href="#DejaVuSans-55"/>
      </g>
     </g>
    </g>
    <g id="xtick_21">
     <g id="line2d_21">
      <g>
       <use style="stroke:#000000;stroke-width:0.8;" x="725.627494" xlink:href="#ma459090929" y="315"/>
      </g>
     </g>
     <g id="text_21">
      <!-- E01026953 -->
      <g transform="translate(728.662807 384.940625)rotate(-90)scale(0.11 -0.11)">
       <use xlink:href="#DejaVuSans-69"/>
       <use x="63.183594" xlink:href="#DejaVuSans-48"/>
       <use x="126.806641" xlink:href="#DejaVuSans-49"/>
       <use x="190.429688" xlink:href="#DejaVuSans-48"/>
       <use x="254.052734" xlink:href="#DejaVuSans-50"/>
       <use x="317.675781" xlink:href="#DejaVuSans-54"/>
       <use x="381.298828" xlink:href="#DejaVuSans-57"/>
       <use x="444.921875" xlink:href="#DejaVuSans-53"/>
       <use x="508.544922" xlink:href="#DejaVuSans-51"/>
      </g>
     </g>
    </g>
    <g id="xtick_22">
     <g id="line2d_22">
      <g>
       <use style="stroke:#000000;stroke-width:0.8;" x="750.372506" xlink:href="#ma459090929" y="315"/>
      </g>
     </g>
     <g id="text_22">
      <!-- E01026952 -->
      <g transform="translate(753.407818 384.940625)rotate(-90)scale(0.11 -0.11)">
       <use xlink:href="#DejaVuSans-69"/>
       <use x="63.183594" xlink:href="#DejaVuSans-48"/>
       <use x="126.806641" xlink:href="#DejaVuSans-49"/>
       <use x="190.429688" xlink:href="#DejaVuSans-48"/>
       <use x="254.052734" xlink:href="#DejaVuSans-50"/>
       <use x="317.675781" xlink:href="#DejaVuSans-54"/>
       <use x="381.298828" xlink:href="#DejaVuSans-57"/>
       <use x="444.921875" xlink:href="#DejaVuSans-53"/>
       <use x="508.544922" xlink:href="#DejaVuSans-50"/>
      </g>
     </g>
    </g>
    <g id="xtick_23">
     <g id="line2d_23">
      <g>
       <use style="stroke:#000000;stroke-width:0.8;" x="775.117517" xlink:href="#ma459090929" y="315"/>
      </g>
     </g>
     <g id="text_23">
      <!-- E01026959 -->
      <g transform="translate(778.152829 384.940625)rotate(-90)scale(0.11 -0.11)">
       <use xlink:href="#DejaVuSans-69"/>
       <use x="63.183594" xlink:href="#DejaVuSans-48"/>
       <use x="126.806641" xlink:href="#DejaVuSans-49"/>
       <use x="190.429688" xlink:href="#DejaVuSans-48"/>
       <use x="254.052734" xlink:href="#DejaVuSans-50"/>
       <use x="317.675781" xlink:href="#DejaVuSans-54"/>
       <use x="381.298828" xlink:href="#DejaVuSans-57"/>
       <use x="444.921875" xlink:href="#DejaVuSans-53"/>
       <use x="508.544922" xlink:href="#DejaVuSans-57"/>
      </g>
     </g>
    </g>
    <g id="xtick_24">
     <g id="line2d_24">
      <g>
       <use style="stroke:#000000;stroke-width:0.8;" x="799.862528" xlink:href="#ma459090929" y="315"/>
      </g>
     </g>
     <g id="text_24">
      <!-- E01032967 -->
      <g transform="translate(802.89784 384.940625)rotate(-90)scale(0.11 -0.11)">
       <use xlink:href="#DejaVuSans-69"/>
       <use x="63.183594" xlink:href="#DejaVuSans-48"/>
       <use x="126.806641" xlink:href="#DejaVuSans-49"/>
       <use x="190.429688" xlink:href="#DejaVuSans-48"/>
       <use x="254.052734" xlink:href="#DejaVuSans-51"/>
       <use x="317.675781" xlink:href="#DejaVuSans-50"/>
       <use x="381.298828" xlink:href="#DejaVuSans-57"/>
       <use x="444.921875" xlink:href="#DejaVuSans-54"/>
       <use x="508.544922" xlink:href="#DejaVuSans-55"/>
      </g>
     </g>
    </g>
    <g id="xtick_25">
     <g id="line2d_25">
      <g>
       <use style="stroke:#000000;stroke-width:0.8;" x="824.607539" xlink:href="#ma459090929" y="315"/>
      </g>
     </g>
     <g id="text_25">
      <!-- E01026951 -->
      <g transform="translate(827.642851 384.940625)rotate(-90)scale(0.11 -0.11)">
       <use xlink:href="#DejaVuSans-69"/>
       <use x="63.183594" xlink:href="#DejaVuSans-48"/>
       <use x="126.806641" xlink:href="#DejaVuSans-49"/>
       <use x="190.429688" xlink:href="#DejaVuSans-48"/>
       <use x="254.052734" xlink:href="#DejaVuSans-50"/>
       <use x="317.675781" xlink:href="#DejaVuSans-54"/>
       <use x="381.298828" xlink:href="#DejaVuSans-57"/>
       <use x="444.921875" xlink:href="#DejaVuSans-53"/>
       <use x="508.544922" xlink:href="#DejaVuSans-49"/>
      </g>
     </g>
    </g>
    <g id="xtick_26">
     <g id="line2d_26">
      <g>
       <use style="stroke:#000000;stroke-width:0.8;" x="849.35255" xlink:href="#ma459090929" y="315"/>
      </g>
     </g>
     <g id="text_26">
      <!-- E01026954 -->
      <g transform="translate(852.387862 384.940625)rotate(-90)scale(0.11 -0.11)">
       <use xlink:href="#DejaVuSans-69"/>
       <use x="63.183594" xlink:href="#DejaVuSans-48"/>
       <use x="126.806641" xlink:href="#DejaVuSans-49"/>
       <use x="190.429688" xlink:href="#DejaVuSans-48"/>
       <use x="254.052734" xlink:href="#DejaVuSans-50"/>
       <use x="317.675781" xlink:href="#DejaVuSans-54"/>
       <use x="381.298828" xlink:href="#DejaVuSans-57"/>
       <use x="444.921875" xlink:href="#DejaVuSans-53"/>
       <use x="508.544922" xlink:href="#DejaVuSans-52"/>
      </g>
     </g>
    </g>
    <g id="xtick_27">
     <g id="line2d_27">
      <g>
       <use style="stroke:#000000;stroke-width:0.8;" x="874.097561" xlink:href="#ma459090929" y="315"/>
      </g>
     </g>
     <g id="text_27">
      <!-- E01032966 -->
      <g transform="translate(877.132873 384.940625)rotate(-90)scale(0.11 -0.11)">
       <use xlink:href="#DejaVuSans-69"/>
       <use x="63.183594" xlink:href="#DejaVuSans-48"/>
       <use x="126.806641" xlink:href="#DejaVuSans-49"/>
       <use x="190.429688" xlink:href="#DejaVuSans-48"/>
       <use x="254.052734" xlink:href="#DejaVuSans-51"/>
       <use x="317.675781" xlink:href="#DejaVuSans-50"/>
       <use x="381.298828" xlink:href="#DejaVuSans-57"/>
       <use x="444.921875" xlink:href="#DejaVuSans-54"/>
       <use x="508.544922" xlink:href="#DejaVuSans-54"/>
      </g>
     </g>
    </g>
    <g id="xtick_28">
     <g id="line2d_28">
      <g>
       <use style="stroke:#000000;stroke-width:0.8;" x="898.842572" xlink:href="#ma459090929" y="315"/>
      </g>
     </g>
     <g id="text_28">
      <!-- E01026963 -->
      <g transform="translate(901.877885 384.940625)rotate(-90)scale(0.11 -0.11)">
       <use xlink:href="#DejaVuSans-69"/>
       <use x="63.183594" xlink:href="#DejaVuSans-48"/>
       <use x="126.806641" xlink:href="#DejaVuSans-49"/>
       <use x="190.429688" xlink:href="#DejaVuSans-48"/>
       <use x="254.052734" xlink:href="#DejaVuSans-50"/>
       <use x="317.675781" xlink:href="#DejaVuSans-54"/>
       <use x="381.298828" xlink:href="#DejaVuSans-57"/>
       <use x="444.921875" xlink:href="#DejaVuSans-54"/>
       <use x="508.544922" xlink:href="#DejaVuSans-51"/>
      </g>
     </g>
    </g>
    <g id="xtick_29">
     <g id="line2d_29">
      <g>
       <use style="stroke:#000000;stroke-width:0.8;" x="923.587583" xlink:href="#ma459090929" y="315"/>
      </g>
     </g>
     <g id="text_29">
      <!-- E01032964 -->
      <g transform="translate(926.622896 384.940625)rotate(-90)scale(0.11 -0.11)">
       <use xlink:href="#DejaVuSans-69"/>
       <use x="63.183594" xlink:href="#DejaVuSans-48"/>
       <use x="126.806641" xlink:href="#DejaVuSans-49"/>
       <use x="190.429688" xlink:href="#DejaVuSans-48"/>
       <use x="254.052734" xlink:href="#DejaVuSans-51"/>
       <use x="317.675781" xlink:href="#DejaVuSans-50"/>
       <use x="381.298828" xlink:href="#DejaVuSans-57"/>
       <use x="444.921875" xlink:href="#DejaVuSans-54"/>
       <use x="508.544922" xlink:href="#DejaVuSans-52"/>
      </g>
     </g>
    </g>
    <g id="xtick_30">
     <g id="line2d_30">
      <g>
       <use style="stroke:#000000;stroke-width:0.8;" x="948.332594" xlink:href="#ma459090929" y="315"/>
      </g>
     </g>
     <g id="text_30">
      <!-- E01026971 -->
      <g transform="translate(951.367907 384.940625)rotate(-90)scale(0.11 -0.11)">
       <use xlink:href="#DejaVuSans-69"/>
       <use x="63.183594" xlink:href="#DejaVuSans-48"/>
       <use x="126.806641" xlink:href="#DejaVuSans-49"/>
       <use x="190.429688" xlink:href="#DejaVuSans-48"/>
       <use x="254.052734" xlink:href="#DejaVuSans-50"/>
       <use x="317.675781" xlink:href="#DejaVuSans-54"/>
       <use x="381.298828" xlink:href="#DejaVuSans-57"/>
       <use x="444.921875" xlink:href="#DejaVuSans-55"/>
       <use x="508.544922" xlink:href="#DejaVuSans-49"/>
      </g>
     </g>
    </g>
    <g id="xtick_31">
     <g id="line2d_31">
      <g>
       <use style="stroke:#000000;stroke-width:0.8;" x="973.077605" xlink:href="#ma459090929" y="315"/>
      </g>
     </g>
     <g id="text_31">
      <!-- E01026976 -->
      <g transform="translate(976.112918 384.940625)rotate(-90)scale(0.11 -0.11)">
       <use xlink:href="#DejaVuSans-69"/>
       <use x="63.183594" xlink:href="#DejaVuSans-48"/>
       <use x="126.806641" xlink:href="#DejaVuSans-49"/>
       <use x="190.429688" xlink:href="#DejaVuSans-48"/>
       <use x="254.052734" xlink:href="#DejaVuSans-50"/>
       <use x="317.675781" xlink:href="#DejaVuSans-54"/>
       <use x="381.298828" xlink:href="#DejaVuSans-57"/>
       <use x="444.921875" xlink:href="#DejaVuSans-55"/>
       <use x="508.544922" xlink:href="#DejaVuSans-54"/>
      </g>
     </g>
    </g>
    <g id="xtick_32">
     <g id="line2d_32">
      <g>
       <use style="stroke:#000000;stroke-width:0.8;" x="997.822616" xlink:href="#ma459090929" y="315"/>
      </g>
     </g>
     <g id="text_32">
      <!-- E01026955 -->
      <g transform="translate(1000.857929 384.940625)rotate(-90)scale(0.11 -0.11)">
       <use xlink:href="#DejaVuSans-69"/>
       <use x="63.183594" xlink:href="#DejaVuSans-48"/>
       <use x="126.806641" xlink:href="#DejaVuSans-49"/>
       <use x="190.429688" xlink:href="#DejaVuSans-48"/>
       <use x="254.052734" xlink:href="#DejaVuSans-50"/>
       <use x="317.675781" xlink:href="#DejaVuSans-54"/>
       <use x="381.298828" xlink:href="#DejaVuSans-57"/>
       <use x="444.921875" xlink:href="#DejaVuSans-53"/>
       <use x="508.544922" xlink:href="#DejaVuSans-53"/>
      </g>
     </g>
    </g>
    <g id="xtick_33">
     <g id="line2d_33">
      <g>
       <use style="stroke:#000000;stroke-width:0.8;" x="1022.567627" xlink:href="#ma459090929" y="315"/>
      </g>
     </g>
     <g id="text_33">
      <!-- E01026979 -->
      <g transform="translate(1025.60294 384.940625)rotate(-90)scale(0.11 -0.11)">
       <use xlink:href="#DejaVuSans-69"/>
       <use x="63.183594" xlink:href="#DejaVuSans-48"/>
       <use x="126.806641" xlink:href="#DejaVuSans-49"/>
       <use x="190.429688" xlink:href="#DejaVuSans-48"/>
       <use x="254.052734" xlink:href="#DejaVuSans-50"/>
       <use x="317.675781" xlink:href="#DejaVuSans-54"/>
       <use x="381.298828" xlink:href="#DejaVuSans-57"/>
       <use x="444.921875" xlink:href="#DejaVuSans-55"/>
       <use x="508.544922" xlink:href="#DejaVuSans-57"/>
      </g>
     </g>
    </g>
    <g id="xtick_34">
     <g id="line2d_34">
      <g>
       <use style="stroke:#000000;stroke-width:0.8;" x="1047.312639" xlink:href="#ma459090929" y="315"/>
      </g>
     </g>
     <g id="text_34">
      <!-- E01026975 -->
      <g transform="translate(1050.347951 384.940625)rotate(-90)scale(0.11 -0.11)">
       <use xlink:href="#DejaVuSans-69"/>
       <use x="63.183594" xlink:href="#DejaVuSans-48"/>
       <use x="126.806641" xlink:href="#DejaVuSans-49"/>
       <use x="190.429688" xlink:href="#DejaVuSans-48"/>
       <use x="254.052734" xlink:href="#DejaVuSans-50"/>
       <use x="317.675781" xlink:href="#DejaVuSans-54"/>
       <use x="381.298828" xlink:href="#DejaVuSans-57"/>
       <use x="444.921875" xlink:href="#DejaVuSans-55"/>
       <use x="508.544922" xlink:href="#DejaVuSans-53"/>
      </g>
     </g>
    </g>
    <g id="xtick_35">
     <g id="line2d_35">
      <g>
       <use style="stroke:#000000;stroke-width:0.8;" x="1072.05765" xlink:href="#ma459090929" y="315"/>
      </g>
     </g>
     <g id="text_35">
      <!-- E01032965 -->
      <g transform="translate(1075.092962 384.940625)rotate(-90)scale(0.11 -0.11)">
       <use xlink:href="#DejaVuSans-69"/>
       <use x="63.183594" xlink:href="#DejaVuSans-48"/>
       <use x="126.806641" xlink:href="#DejaVuSans-49"/>
       <use x="190.429688" xlink:href="#DejaVuSans-48"/>
       <use x="254.052734" xlink:href="#DejaVuSans-51"/>
       <use x="317.675781" xlink:href="#DejaVuSans-50"/>
       <use x="381.298828" xlink:href="#DejaVuSans-57"/>
       <use x="444.921875" xlink:href="#DejaVuSans-54"/>
       <use x="508.544922" xlink:href="#DejaVuSans-53"/>
      </g>
     </g>
    </g>
    <g id="xtick_36">
     <g id="line2d_36">
      <g>
       <use style="stroke:#000000;stroke-width:0.8;" x="1096.802661" xlink:href="#ma459090929" y="315"/>
      </g>
     </g>
     <g id="text_36">
      <!-- E01026961 -->
      <g transform="translate(1099.837973 384.940625)rotate(-90)scale(0.11 -0.11)">
       <use xlink:href="#DejaVuSans-69"/>
       <use x="63.183594" xlink:href="#DejaVuSans-48"/>
       <use x="126.806641" xlink:href="#DejaVuSans-49"/>
       <use x="190.429688" xlink:href="#DejaVuSans-48"/>
       <use x="254.052734" xlink:href="#DejaVuSans-50"/>
       <use x="317.675781" xlink:href="#DejaVuSans-54"/>
       <use x="381.298828" xlink:href="#DejaVuSans-57"/>
       <use x="444.921875" xlink:href="#DejaVuSans-54"/>
       <use x="508.544922" xlink:href="#DejaVuSans-49"/>
      </g>
     </g>
    </g>
    <g id="xtick_37">
     <g id="line2d_37">
      <g>
       <use style="stroke:#000000;stroke-width:0.8;" x="1121.547672" xlink:href="#ma459090929" y="315"/>
      </g>
     </g>
     <g id="text_37">
      <!-- E01026970 -->
      <g transform="translate(1124.582984 384.940625)rotate(-90)scale(0.11 -0.11)">
       <use xlink:href="#DejaVuSans-69"/>
       <use x="63.183594" xlink:href="#DejaVuSans-48"/>
       <use x="126.806641" xlink:href="#DejaVuSans-49"/>
       <use x="190.429688" xlink:href="#DejaVuSans-48"/>
       <use x="254.052734" xlink:href="#DejaVuSans-50"/>
       <use x="317.675781" xlink:href="#DejaVuSans-54"/>
       <use x="381.298828" xlink:href="#DejaVuSans-57"/>
       <use x="444.921875" xlink:href="#DejaVuSans-55"/>
       <use x="508.544922" xlink:href="#DejaVuSans-48"/>
      </g>
     </g>
    </g>
    <g id="xtick_38">
     <g id="line2d_38">
      <g>
       <use style="stroke:#000000;stroke-width:0.8;" x="1146.292683" xlink:href="#ma459090929" y="315"/>
      </g>
     </g>
     <g id="text_38">
      <!-- E01026983 -->
      <g transform="translate(1149.327995 384.940625)rotate(-90)scale(0.11 -0.11)">
       <use xlink:href="#DejaVuSans-69"/>
       <use x="63.183594" xlink:href="#DejaVuSans-48"/>
       <use x="126.806641" xlink:href="#DejaVuSans-49"/>
       <use x="190.429688" xlink:href="#DejaVuSans-48"/>
       <use x="254.052734" xlink:href="#DejaVuSans-50"/>
       <use x="317.675781" xlink:href="#DejaVuSans-54"/>
       <use x="381.298828" xlink:href="#DejaVuSans-57"/>
       <use x="444.921875" xlink:href="#DejaVuSans-56"/>
       <use x="508.544922" xlink:href="#DejaVuSans-51"/>
      </g>
     </g>
    </g>
    <g id="xtick_39">
     <g id="line2d_39">
      <g>
       <use style="stroke:#000000;stroke-width:0.8;" x="1171.037694" xlink:href="#ma459090929" y="315"/>
      </g>
     </g>
     <g id="text_39">
      <!-- E01026981 -->
      <g transform="translate(1174.073007 384.940625)rotate(-90)scale(0.11 -0.11)">
       <use xlink:href="#DejaVuSans-69"/>
       <use x="63.183594" xlink:href="#DejaVuSans-48"/>
       <use x="126.806641" xlink:href="#DejaVuSans-49"/>
       <use x="190.429688" xlink:href="#DejaVuSans-48"/>
       <use x="254.052734" xlink:href="#DejaVuSans-50"/>
       <use x="317.675781" xlink:href="#DejaVuSans-54"/>
       <use x="381.298828" xlink:href="#DejaVuSans-57"/>
       <use x="444.921875" xlink:href="#DejaVuSans-56"/>
       <use x="508.544922" xlink:href="#DejaVuSans-49"/>
      </g>
     </g>
    </g>
    <g id="xtick_40">
     <g id="line2d_40">
      <g>
       <use style="stroke:#000000;stroke-width:0.8;" x="1195.782705" xlink:href="#ma459090929" y="315"/>
      </g>
     </g>
     <g id="text_40">
      <!-- E01026974 -->
      <g transform="translate(1198.818018 384.940625)rotate(-90)scale(0.11 -0.11)">
       <use xlink:href="#DejaVuSans-69"/>
       <use x="63.183594" xlink:href="#DejaVuSans-48"/>
       <use x="126.806641" xlink:href="#DejaVuSans-49"/>
       <use x="190.429688" xlink:href="#DejaVuSans-48"/>
       <use x="254.052734" xlink:href="#DejaVuSans-50"/>
       <use x="317.675781" xlink:href="#DejaVuSans-54"/>
       <use x="381.298828" xlink:href="#DejaVuSans-57"/>
       <use x="444.921875" xlink:href="#DejaVuSans-55"/>
       <use x="508.544922" xlink:href="#DejaVuSans-52"/>
      </g>
     </g>
    </g>
    <g id="xtick_41">
     <g id="line2d_41">
      <g>
       <use style="stroke:#000000;stroke-width:0.8;" x="1220.527716" xlink:href="#ma459090929" y="315"/>
      </g>
     </g>
     <g id="text_41">
      <!-- E01026965 -->
      <g transform="translate(1223.563029 384.940625)rotate(-90)scale(0.11 -0.11)">
       <use xlink:href="#DejaVuSans-69"/>
       <use x="63.183594" xlink:href="#DejaVuSans-48"/>
       <use x="126.806641" xlink:href="#DejaVuSans-49"/>
       <use x="190.429688" xlink:href="#DejaVuSans-48"/>
       <use x="254.052734" xlink:href="#DejaVuSans-50"/>
       <use x="317.675781" xlink:href="#DejaVuSans-54"/>
       <use x="381.298828" xlink:href="#DejaVuSans-57"/>
       <use x="444.921875" xlink:href="#DejaVuSans-54"/>
       <use x="508.544922" xlink:href="#DejaVuSans-53"/>
      </g>
     </g>
    </g>
    <g id="xtick_42">
     <g id="line2d_42">
      <g>
       <use style="stroke:#000000;stroke-width:0.8;" x="1245.272727" xlink:href="#ma459090929" y="315"/>
      </g>
     </g>
     <g id="text_42">
      <!-- E01026978 -->
      <g transform="translate(1248.30804 384.940625)rotate(-90)scale(0.11 -0.11)">
       <use xlink:href="#DejaVuSans-69"/>
       <use x="63.183594" xlink:href="#DejaVuSans-48"/>
       <use x="126.806641" xlink:href="#DejaVuSans-49"/>
       <use x="190.429688" xlink:href="#DejaVuSans-48"/>
       <use x="254.052734" xlink:href="#DejaVuSans-50"/>
       <use x="317.675781" xlink:href="#DejaVuSans-54"/>
       <use x="381.298828" xlink:href="#DejaVuSans-57"/>
       <use x="444.921875" xlink:href="#DejaVuSans-55"/>
       <use x="508.544922" xlink:href="#DejaVuSans-56"/>
      </g>
     </g>
    </g>
    <g id="text_43">
     <!-- LSOA -->
     <defs>
      <path d="M 9.8125 72.90625 
L 19.671875 72.90625 
L 19.671875 8.296875 
L 55.171875 8.296875 
L 55.171875 0 
L 9.8125 0 
z
" id="DejaVuSans-76"/>
      <path d="M 53.515625 70.515625 
L 53.515625 60.890625 
Q 47.90625 63.578125 42.921875 64.890625 
Q 37.9375 66.21875 33.296875 66.21875 
Q 25.25 66.21875 20.875 63.09375 
Q 16.5 59.96875 16.5 54.203125 
Q 16.5 49.359375 19.40625 46.890625 
Q 22.3125 44.4375 30.421875 42.921875 
L 36.375 41.703125 
Q 47.40625 39.59375 52.65625 34.296875 
Q 57.90625 29 57.90625 20.125 
Q 57.90625 9.515625 50.796875 4.046875 
Q 43.703125 -1.421875 29.984375 -1.421875 
Q 24.8125 -1.421875 18.96875 -0.25 
Q 13.140625 0.921875 6.890625 3.21875 
L 6.890625 13.375 
Q 12.890625 10.015625 18.65625 8.296875 
Q 24.421875 6.59375 29.984375 6.59375 
Q 38.421875 6.59375 43.015625 9.90625 
Q 47.609375 13.234375 47.609375 19.390625 
Q 47.609375 24.75 44.3125 27.78125 
Q 41.015625 30.8125 33.5 32.328125 
L 27.484375 33.5 
Q 16.453125 35.6875 11.515625 40.375 
Q 6.59375 45.0625 6.59375 53.421875 
Q 6.59375 63.09375 13.40625 68.65625 
Q 20.21875 74.21875 32.171875 74.21875 
Q 37.3125 74.21875 42.625 73.28125 
Q 47.953125 72.359375 53.515625 70.515625 
z
" id="DejaVuSans-83"/>
      <path d="M 39.40625 66.21875 
Q 28.65625 66.21875 22.328125 58.203125 
Q 16.015625 50.203125 16.015625 36.375 
Q 16.015625 22.609375 22.328125 14.59375 
Q 28.65625 6.59375 39.40625 6.59375 
Q 50.140625 6.59375 56.421875 14.59375 
Q 62.703125 22.609375 62.703125 36.375 
Q 62.703125 50.203125 56.421875 58.203125 
Q 50.140625 66.21875 39.40625 66.21875 
z
M 39.40625 74.21875 
Q 54.734375 74.21875 63.90625 63.9375 
Q 73.09375 53.65625 73.09375 36.375 
Q 73.09375 19.140625 63.90625 8.859375 
Q 54.734375 -1.421875 39.40625 -1.421875 
Q 24.03125 -1.421875 14.8125 8.828125 
Q 5.609375 19.09375 5.609375 36.375 
Q 5.609375 53.65625 14.8125 63.9375 
Q 24.03125 74.21875 39.40625 74.21875 
z
" id="DejaVuSans-79"/>
      <path d="M 34.1875 63.1875 
L 20.796875 26.90625 
L 47.609375 26.90625 
z
M 28.609375 72.90625 
L 39.796875 72.90625 
L 67.578125 0 
L 57.328125 0 
L 50.6875 18.703125 
L 17.828125 18.703125 
L 11.1875 0 
L 0.78125 0 
z
" id="DejaVuSans-65"/>
     </defs>
     <g transform="translate(722.02125 398.05875)scale(0.12 -0.12)">
      <use xlink:href="#DejaVuSans-76"/>
      <use x="55.712891" xlink:href="#DejaVuSans-83"/>
      <use x="119.189453" xlink:href="#DejaVuSans-79"/>
      <use x="197.884766" xlink:href="#DejaVuSans-65"/>
     </g>
    </g>
   </g>
   <g id="matplotlib.axis_2">
    <g id="ytick_1">
     <g id="line2d_43">
      <defs>
       <path d="M 0 0 
L -3.5 0 
" id="m6cd36ba562" style="stroke:#000000;stroke-width:0.8;"/>
      </defs>
      <g>
       <use style="stroke:#000000;stroke-width:0.8;" x="180" xlink:href="#m6cd36ba562" y="303.169379"/>
      </g>
     </g>
     <g id="text_44">
      <!-- 0 -->
      <g transform="translate(166.00125 307.34852)scale(0.11 -0.11)">
       <use xlink:href="#DejaVuSans-48"/>
      </g>
     </g>
    </g>
    <g id="ytick_2">
     <g id="line2d_44">
      <g>
       <use style="stroke:#000000;stroke-width:0.8;" x="180" xlink:href="#m6cd36ba562" y="262.867486"/>
      </g>
     </g>
     <g id="text_45">
      <!-- 1000 -->
      <g transform="translate(145.005 267.046626)scale(0.11 -0.11)">
       <use xlink:href="#DejaVuSans-49"/>
       <use x="63.623047" xlink:href="#DejaVuSans-48"/>
       <use x="127.246094" xlink:href="#DejaVuSans-48"/>
       <use x="190.869141" xlink:href="#DejaVuSans-48"/>
      </g>
     </g>
    </g>
    <g id="ytick_3">
     <g id="line2d_45">
      <g>
       <use style="stroke:#000000;stroke-width:0.8;" x="180" xlink:href="#m6cd36ba562" y="222.565592"/>
      </g>
     </g>
     <g id="text_46">
      <!-- 2000 -->
      <g transform="translate(145.005 226.744733)scale(0.11 -0.11)">
       <use xlink:href="#DejaVuSans-50"/>
       <use x="63.623047" xlink:href="#DejaVuSans-48"/>
       <use x="127.246094" xlink:href="#DejaVuSans-48"/>
       <use x="190.869141" xlink:href="#DejaVuSans-48"/>
      </g>
     </g>
    </g>
    <g id="ytick_4">
     <g id="line2d_46">
      <g>
       <use style="stroke:#000000;stroke-width:0.8;" x="180" xlink:href="#m6cd36ba562" y="182.263699"/>
      </g>
     </g>
     <g id="text_47">
      <!-- 3000 -->
      <g transform="translate(145.005 186.442839)scale(0.11 -0.11)">
       <use xlink:href="#DejaVuSans-51"/>
       <use x="63.623047" xlink:href="#DejaVuSans-48"/>
       <use x="127.246094" xlink:href="#DejaVuSans-48"/>
       <use x="190.869141" xlink:href="#DejaVuSans-48"/>
      </g>
     </g>
    </g>
    <g id="ytick_5">
     <g id="line2d_47">
      <g>
       <use style="stroke:#000000;stroke-width:0.8;" x="180" xlink:href="#m6cd36ba562" y="141.961805"/>
      </g>
     </g>
     <g id="text_48">
      <!-- 4000 -->
      <g transform="translate(145.005 146.140946)scale(0.11 -0.11)">
       <use xlink:href="#DejaVuSans-52"/>
       <use x="63.623047" xlink:href="#DejaVuSans-48"/>
       <use x="127.246094" xlink:href="#DejaVuSans-48"/>
       <use x="190.869141" xlink:href="#DejaVuSans-48"/>
      </g>
     </g>
    </g>
    <g id="ytick_6">
     <g id="line2d_48">
      <g>
       <use style="stroke:#000000;stroke-width:0.8;" x="180" xlink:href="#m6cd36ba562" y="101.659912"/>
      </g>
     </g>
     <g id="text_49">
      <!-- 5000 -->
      <g transform="translate(145.005 105.839052)scale(0.11 -0.11)">
       <use xlink:href="#DejaVuSans-53"/>
       <use x="63.623047" xlink:href="#DejaVuSans-48"/>
       <use x="127.246094" xlink:href="#DejaVuSans-48"/>
       <use x="190.869141" xlink:href="#DejaVuSans-48"/>
      </g>
     </g>
    </g>
    <g id="ytick_7">
     <g id="line2d_49">
      <g>
       <use style="stroke:#000000;stroke-width:0.8;" x="180" xlink:href="#m6cd36ba562" y="61.358018"/>
      </g>
     </g>
     <g id="text_50">
      <!-- 6000 -->
      <g transform="translate(145.005 65.537159)scale(0.11 -0.11)">
       <use xlink:href="#DejaVuSans-54"/>
       <use x="63.623047" xlink:href="#DejaVuSans-48"/>
       <use x="127.246094" xlink:href="#DejaVuSans-48"/>
       <use x="190.869141" xlink:href="#DejaVuSans-48"/>
      </g>
     </g>
    </g>
    <g id="text_51">
     <!-- Jobs -->
     <defs>
      <path d="M 9.8125 72.90625 
L 19.671875 72.90625 
L 19.671875 5.078125 
Q 19.671875 -8.109375 14.671875 -14.0625 
Q 9.671875 -20.015625 -1.421875 -20.015625 
L -5.171875 -20.015625 
L -5.171875 -11.71875 
L -2.09375 -11.71875 
Q 4.4375 -11.71875 7.125 -8.046875 
Q 9.8125 -4.390625 9.8125 5.078125 
z
" id="DejaVuSans-74"/>
      <path d="M 30.609375 48.390625 
Q 23.390625 48.390625 19.1875 42.75 
Q 14.984375 37.109375 14.984375 27.296875 
Q 14.984375 17.484375 19.15625 11.84375 
Q 23.34375 6.203125 30.609375 6.203125 
Q 37.796875 6.203125 41.984375 11.859375 
Q 46.1875 17.53125 46.1875 27.296875 
Q 46.1875 37.015625 41.984375 42.703125 
Q 37.796875 48.390625 30.609375 48.390625 
z
M 30.609375 56 
Q 42.328125 56 49.015625 48.375 
Q 55.71875 40.765625 55.71875 27.296875 
Q 55.71875 13.875 49.015625 6.21875 
Q 42.328125 -1.421875 30.609375 -1.421875 
Q 18.84375 -1.421875 12.171875 6.21875 
Q 5.515625 13.875 5.515625 27.296875 
Q 5.515625 40.765625 12.171875 48.375 
Q 18.84375 56 30.609375 56 
z
" id="DejaVuSans-111"/>
      <path d="M 48.6875 27.296875 
Q 48.6875 37.203125 44.609375 42.84375 
Q 40.53125 48.484375 33.40625 48.484375 
Q 26.265625 48.484375 22.1875 42.84375 
Q 18.109375 37.203125 18.109375 27.296875 
Q 18.109375 17.390625 22.1875 11.75 
Q 26.265625 6.109375 33.40625 6.109375 
Q 40.53125 6.109375 44.609375 11.75 
Q 48.6875 17.390625 48.6875 27.296875 
z
M 18.109375 46.390625 
Q 20.953125 51.265625 25.265625 53.625 
Q 29.59375 56 35.59375 56 
Q 45.5625 56 51.78125 48.09375 
Q 58.015625 40.1875 58.015625 27.296875 
Q 58.015625 14.40625 51.78125 6.484375 
Q 45.5625 -1.421875 35.59375 -1.421875 
Q 29.59375 -1.421875 25.265625 0.953125 
Q 20.953125 3.328125 18.109375 8.203125 
L 18.109375 0 
L 9.078125 0 
L 9.078125 75.984375 
L 18.109375 75.984375 
z
" id="DejaVuSans-98"/>
      <path d="M 44.28125 53.078125 
L 44.28125 44.578125 
Q 40.484375 46.53125 36.375 47.5 
Q 32.28125 48.484375 27.875 48.484375 
Q 21.1875 48.484375 17.84375 46.4375 
Q 14.5 44.390625 14.5 40.28125 
Q 14.5 37.15625 16.890625 35.375 
Q 19.28125 33.59375 26.515625 31.984375 
L 29.59375 31.296875 
Q 39.15625 29.25 43.1875 25.515625 
Q 47.21875 21.78125 47.21875 15.09375 
Q 47.21875 7.46875 41.1875 3.015625 
Q 35.15625 -1.421875 24.609375 -1.421875 
Q 20.21875 -1.421875 15.453125 -0.5625 
Q 10.6875 0.296875 5.421875 2 
L 5.421875 11.28125 
Q 10.40625 8.6875 15.234375 7.390625 
Q 20.0625 6.109375 24.8125 6.109375 
Q 31.15625 6.109375 34.5625 8.28125 
Q 37.984375 10.453125 37.984375 14.40625 
Q 37.984375 18.0625 35.515625 20.015625 
Q 33.0625 21.96875 24.703125 23.78125 
L 21.578125 24.515625 
Q 13.234375 26.265625 9.515625 29.90625 
Q 5.8125 33.546875 5.8125 39.890625 
Q 5.8125 47.609375 11.28125 51.796875 
Q 16.75 56 26.8125 56 
Q 31.78125 56 36.171875 55.265625 
Q 40.578125 54.546875 44.28125 53.078125 
z
" id="DejaVuSans-115"/>
     </defs>
     <g transform="translate(138.509375 191.475937)rotate(-90)scale(0.12 -0.12)">
      <use xlink:href="#DejaVuSans-74"/>
      <use x="29.492188" xlink:href="#DejaVuSans-111"/>
      <use x="90.673828" xlink:href="#DejaVuSans-98"/>
      <use x="154.150391" xlink:href="#DejaVuSans-115"/>
     </g>
    </g>
   </g>
   <g id="line2d_50">
    <path clip-path="url(#pae855d0229)" d="M 230.727273 62.325264 
L 255.472284 132.208747 
L 280.217295 160.702186 
L 304.962306 172.51064 
L 329.707317 194.233361 
L 354.452328 195.764833 
L 379.197339 197.296305 
L 403.94235 199.95623 
L 428.687361 200.762268 
L 453.432373 209.386873 
L 478.177384 209.991401 
L 502.922395 212.369213 
L 527.667406 214.827629 
L 552.412417 215.71427 
L 577.157428 219.945969 
L 601.902439 221.638649 
L 626.64745 221.799856 
L 651.392461 222.484988 
L 676.137472 223.814951 
L 700.882483 228.409367 
L 725.627494 230.102046 
L 750.372506 233.245594 
L 775.117517 234.374047 
L 799.862528 236.832462 
L 824.607539 237.598198 
L 849.35255 238.68635 
L 874.097561 239.008765 
L 898.842572 239.855104 
L 923.587583 240.62084 
L 948.332594 242.877746 
L 973.077605 243.15986 
L 997.822616 244.288313 
L 1022.567627 244.489822 
L 1047.312639 244.530124 
L 1072.05765 249.97088 
L 1096.802661 250.61571 
L 1121.547672 251.985974 
L 1146.292683 252.227786 
L 1171.037694 254.887711 
L 1195.782705 256.016164 
L 1220.527716 257.870051 
L 1245.272727 258.111862 
" style="fill:none;stroke:#1f77b4;stroke-linecap:square;stroke-width:1.5;"/>
    <defs>
     <path d="M -3 3 
L 3 -3 
M -3 -3 
L 3 3 
" id="m2a511ef052" style="stroke:#1f77b4;"/>
    </defs>
    <g clip-path="url(#pae855d0229)">
     <use style="fill:#1f77b4;stroke:#1f77b4;" x="230.727273" xlink:href="#m2a511ef052" y="62.325264"/>
     <use style="fill:#1f77b4;stroke:#1f77b4;" x="255.472284" xlink:href="#m2a511ef052" y="132.208747"/>
     <use style="fill:#1f77b4;stroke:#1f77b4;" x="280.217295" xlink:href="#m2a511ef052" y="160.702186"/>
     <use style="fill:#1f77b4;stroke:#1f77b4;" x="304.962306" xlink:href="#m2a511ef052" y="172.51064"/>
     <use style="fill:#1f77b4;stroke:#1f77b4;" x="329.707317" xlink:href="#m2a511ef052" y="194.233361"/>
     <use style="fill:#1f77b4;stroke:#1f77b4;" x="354.452328" xlink:href="#m2a511ef052" y="195.764833"/>
     <use style="fill:#1f77b4;stroke:#1f77b4;" x="379.197339" xlink:href="#m2a511ef052" y="197.296305"/>
     <use style="fill:#1f77b4;stroke:#1f77b4;" x="403.94235" xlink:href="#m2a511ef052" y="199.95623"/>
     <use style="fill:#1f77b4;stroke:#1f77b4;" x="428.687361" xlink:href="#m2a511ef052" y="200.762268"/>
     <use style="fill:#1f77b4;stroke:#1f77b4;" x="453.432373" xlink:href="#m2a511ef052" y="209.386873"/>
     <use style="fill:#1f77b4;stroke:#1f77b4;" x="478.177384" xlink:href="#m2a511ef052" y="209.991401"/>
     <use style="fill:#1f77b4;stroke:#1f77b4;" x="502.922395" xlink:href="#m2a511ef052" y="212.369213"/>
     <use style="fill:#1f77b4;stroke:#1f77b4;" x="527.667406" xlink:href="#m2a511ef052" y="214.827629"/>
     <use style="fill:#1f77b4;stroke:#1f77b4;" x="552.412417" xlink:href="#m2a511ef052" y="215.71427"/>
     <use style="fill:#1f77b4;stroke:#1f77b4;" x="577.157428" xlink:href="#m2a511ef052" y="219.945969"/>
     <use style="fill:#1f77b4;stroke:#1f77b4;" x="601.902439" xlink:href="#m2a511ef052" y="221.638649"/>
     <use style="fill:#1f77b4;stroke:#1f77b4;" x="626.64745" xlink:href="#m2a511ef052" y="221.799856"/>
     <use style="fill:#1f77b4;stroke:#1f77b4;" x="651.392461" xlink:href="#m2a511ef052" y="222.484988"/>
     <use style="fill:#1f77b4;stroke:#1f77b4;" x="676.137472" xlink:href="#m2a511ef052" y="223.814951"/>
     <use style="fill:#1f77b4;stroke:#1f77b4;" x="700.882483" xlink:href="#m2a511ef052" y="228.409367"/>
     <use style="fill:#1f77b4;stroke:#1f77b4;" x="725.627494" xlink:href="#m2a511ef052" y="230.102046"/>
     <use style="fill:#1f77b4;stroke:#1f77b4;" x="750.372506" xlink:href="#m2a511ef052" y="233.245594"/>
     <use style="fill:#1f77b4;stroke:#1f77b4;" x="775.117517" xlink:href="#m2a511ef052" y="234.374047"/>
     <use style="fill:#1f77b4;stroke:#1f77b4;" x="799.862528" xlink:href="#m2a511ef052" y="236.832462"/>
     <use style="fill:#1f77b4;stroke:#1f77b4;" x="824.607539" xlink:href="#m2a511ef052" y="237.598198"/>
     <use style="fill:#1f77b4;stroke:#1f77b4;" x="849.35255" xlink:href="#m2a511ef052" y="238.68635"/>
     <use style="fill:#1f77b4;stroke:#1f77b4;" x="874.097561" xlink:href="#m2a511ef052" y="239.008765"/>
     <use style="fill:#1f77b4;stroke:#1f77b4;" x="898.842572" xlink:href="#m2a511ef052" y="239.855104"/>
     <use style="fill:#1f77b4;stroke:#1f77b4;" x="923.587583" xlink:href="#m2a511ef052" y="240.62084"/>
     <use style="fill:#1f77b4;stroke:#1f77b4;" x="948.332594" xlink:href="#m2a511ef052" y="242.877746"/>
     <use style="fill:#1f77b4;stroke:#1f77b4;" x="973.077605" xlink:href="#m2a511ef052" y="243.15986"/>
     <use style="fill:#1f77b4;stroke:#1f77b4;" x="997.822616" xlink:href="#m2a511ef052" y="244.288313"/>
     <use style="fill:#1f77b4;stroke:#1f77b4;" x="1022.567627" xlink:href="#m2a511ef052" y="244.489822"/>
     <use style="fill:#1f77b4;stroke:#1f77b4;" x="1047.312639" xlink:href="#m2a511ef052" y="244.530124"/>
     <use style="fill:#1f77b4;stroke:#1f77b4;" x="1072.05765" xlink:href="#m2a511ef052" y="249.97088"/>
     <use style="fill:#1f77b4;stroke:#1f77b4;" x="1096.802661" xlink:href="#m2a511ef052" y="250.61571"/>
     <use style="fill:#1f77b4;stroke:#1f77b4;" x="1121.547672" xlink:href="#m2a511ef052" y="251.985974"/>
     <use style="fill:#1f77b4;stroke:#1f77b4;" x="1146.292683" xlink:href="#m2a511ef052" y="252.227786"/>
     <use style="fill:#1f77b4;stroke:#1f77b4;" x="1171.037694" xlink:href="#m2a511ef052" y="254.887711"/>
     <use style="fill:#1f77b4;stroke:#1f77b4;" x="1195.782705" xlink:href="#m2a511ef052" y="256.016164"/>
     <use style="fill:#1f77b4;stroke:#1f77b4;" x="1220.527716" xlink:href="#m2a511ef052" y="257.870051"/>
     <use style="fill:#1f77b4;stroke:#1f77b4;" x="1245.272727" xlink:href="#m2a511ef052" y="258.111862"/>
    </g>
   </g>
   <g id="line2d_51">
    <path clip-path="url(#pae855d0229)" d="M 230.727273 268.763077 
L 255.472284 274.67594 
L 280.217295 274.67594 
L 304.962306 284.503845 
L 329.707317 281.382176 
L 354.452328 281.68847 
L 379.197339 281.994764 
L 403.94235 288.424644 
L 428.687361 282.687957 
L 453.432373 287.538961 
L 478.177384 287.639716 
L 502.922395 285.009346 
L 527.667406 285.501029 
L 552.412417 285.678357 
L 577.157428 286.524697 
L 601.902439 291.522132 
L 626.64745 289.607792 
L 651.392461 289.721981 
L 676.137472 287.298493 
L 700.882483 284.479376 
L 725.627494 288.555913 
L 750.372506 285.688433 
L 775.117517 289.410313 
L 799.862528 289.901996 
L 824.607539 286.776584 
L 849.35255 290.272773 
L 874.097561 290.337256 
L 898.842572 287.34081 
L 923.587583 290.659671 
L 948.332594 291.111053 
L 973.077605 291.167475 
L 997.822616 288.449113 
L 1022.567627 291.433468 
L 1047.312639 291.441528 
L 1072.05765 289.869754 
L 1096.802661 290.030962 
L 1121.547672 292.932698 
L 1146.292683 290.433981 
L 1171.037694 291.098962 
L 1195.782705 291.381075 
L 1220.527716 288.069603 
L 1245.272727 291.905 
" style="fill:none;stroke:#ff7f0e;stroke-linecap:square;stroke-width:1.5;"/>
    <defs>
     <path d="M 0 3 
C 0.795609 3 1.55874 2.683901 2.12132 2.12132 
C 2.683901 1.55874 3 0.795609 3 0 
C 3 -0.795609 2.683901 -1.55874 2.12132 -2.12132 
C 1.55874 -2.683901 0.795609 -3 0 -3 
C -0.795609 -3 -1.55874 -2.683901 -2.12132 -2.12132 
C -2.683901 -1.55874 -3 -0.795609 -3 0 
C -3 0.795609 -2.683901 1.55874 -2.12132 2.12132 
C -1.55874 2.683901 -0.795609 3 0 3 
z
" id="m2b14b93827" style="stroke:#ff7f0e;"/>
    </defs>
    <g clip-path="url(#pae855d0229)">
     <use style="fill:#ff7f0e;stroke:#ff7f0e;" x="230.727273" xlink:href="#m2b14b93827" y="268.763077"/>
     <use style="fill:#ff7f0e;stroke:#ff7f0e;" x="255.472284" xlink:href="#m2b14b93827" y="274.67594"/>
     <use style="fill:#ff7f0e;stroke:#ff7f0e;" x="280.217295" xlink:href="#m2b14b93827" y="274.67594"/>
     <use style="fill:#ff7f0e;stroke:#ff7f0e;" x="304.962306" xlink:href="#m2b14b93827" y="284.503845"/>
     <use style="fill:#ff7f0e;stroke:#ff7f0e;" x="329.707317" xlink:href="#m2b14b93827" y="281.382176"/>
     <use style="fill:#ff7f0e;stroke:#ff7f0e;" x="354.452328" xlink:href="#m2b14b93827" y="281.68847"/>
     <use style="fill:#ff7f0e;stroke:#ff7f0e;" x="379.197339" xlink:href="#m2b14b93827" y="281.994764"/>
     <use style="fill:#ff7f0e;stroke:#ff7f0e;" x="403.94235" xlink:href="#m2b14b93827" y="288.424644"/>
     <use style="fill:#ff7f0e;stroke:#ff7f0e;" x="428.687361" xlink:href="#m2b14b93827" y="282.687957"/>
     <use style="fill:#ff7f0e;stroke:#ff7f0e;" x="453.432373" xlink:href="#m2b14b93827" y="287.538961"/>
     <use style="fill:#ff7f0e;stroke:#ff7f0e;" x="478.177384" xlink:href="#m2b14b93827" y="287.639716"/>
     <use style="fill:#ff7f0e;stroke:#ff7f0e;" x="502.922395" xlink:href="#m2b14b93827" y="285.009346"/>
     <use style="fill:#ff7f0e;stroke:#ff7f0e;" x="527.667406" xlink:href="#m2b14b93827" y="285.501029"/>
     <use style="fill:#ff7f0e;stroke:#ff7f0e;" x="552.412417" xlink:href="#m2b14b93827" y="285.678357"/>
     <use style="fill:#ff7f0e;stroke:#ff7f0e;" x="577.157428" xlink:href="#m2b14b93827" y="286.524697"/>
     <use style="fill:#ff7f0e;stroke:#ff7f0e;" x="601.902439" xlink:href="#m2b14b93827" y="291.522132"/>
     <use style="fill:#ff7f0e;stroke:#ff7f0e;" x="626.64745" xlink:href="#m2b14b93827" y="289.607792"/>
     <use style="fill:#ff7f0e;stroke:#ff7f0e;" x="651.392461" xlink:href="#m2b14b93827" y="289.721981"/>
     <use style="fill:#ff7f0e;stroke:#ff7f0e;" x="676.137472" xlink:href="#m2b14b93827" y="287.298493"/>
     <use style="fill:#ff7f0e;stroke:#ff7f0e;" x="700.882483" xlink:href="#m2b14b93827" y="284.479376"/>
     <use style="fill:#ff7f0e;stroke:#ff7f0e;" x="725.627494" xlink:href="#m2b14b93827" y="288.555913"/>
     <use style="fill:#ff7f0e;stroke:#ff7f0e;" x="750.372506" xlink:href="#m2b14b93827" y="285.688433"/>
     <use style="fill:#ff7f0e;stroke:#ff7f0e;" x="775.117517" xlink:href="#m2b14b93827" y="289.410313"/>
     <use style="fill:#ff7f0e;stroke:#ff7f0e;" x="799.862528" xlink:href="#m2b14b93827" y="289.901996"/>
     <use style="fill:#ff7f0e;stroke:#ff7f0e;" x="824.607539" xlink:href="#m2b14b93827" y="286.776584"/>
     <use style="fill:#ff7f0e;stroke:#ff7f0e;" x="849.35255" xlink:href="#m2b14b93827" y="290.272773"/>
     <use style="fill:#ff7f0e;stroke:#ff7f0e;" x="874.097561" xlink:href="#m2b14b93827" y="290.337256"/>
     <use style="fill:#ff7f0e;stroke:#ff7f0e;" x="898.842572" xlink:href="#m2b14b93827" y="287.34081"/>
     <use style="fill:#ff7f0e;stroke:#ff7f0e;" x="923.587583" xlink:href="#m2b14b93827" y="290.659671"/>
     <use style="fill:#ff7f0e;stroke:#ff7f0e;" x="948.332594" xlink:href="#m2b14b93827" y="291.111053"/>
     <use style="fill:#ff7f0e;stroke:#ff7f0e;" x="973.077605" xlink:href="#m2b14b93827" y="291.167475"/>
     <use style="fill:#ff7f0e;stroke:#ff7f0e;" x="997.822616" xlink:href="#m2b14b93827" y="288.449113"/>
     <use style="fill:#ff7f0e;stroke:#ff7f0e;" x="1022.567627" xlink:href="#m2b14b93827" y="291.433468"/>
     <use style="fill:#ff7f0e;stroke:#ff7f0e;" x="1047.312639" xlink:href="#m2b14b93827" y="291.441528"/>
     <use style="fill:#ff7f0e;stroke:#ff7f0e;" x="1072.05765" xlink:href="#m2b14b93827" y="289.869754"/>
     <use style="fill:#ff7f0e;stroke:#ff7f0e;" x="1096.802661" xlink:href="#m2b14b93827" y="290.030962"/>
     <use style="fill:#ff7f0e;stroke:#ff7f0e;" x="1121.547672" xlink:href="#m2b14b93827" y="292.932698"/>
     <use style="fill:#ff7f0e;stroke:#ff7f0e;" x="1146.292683" xlink:href="#m2b14b93827" y="290.433981"/>
     <use style="fill:#ff7f0e;stroke:#ff7f0e;" x="1171.037694" xlink:href="#m2b14b93827" y="291.098962"/>
     <use style="fill:#ff7f0e;stroke:#ff7f0e;" x="1195.782705" xlink:href="#m2b14b93827" y="291.381075"/>
     <use style="fill:#ff7f0e;stroke:#ff7f0e;" x="1220.527716" xlink:href="#m2b14b93827" y="288.069603"/>
     <use style="fill:#ff7f0e;stroke:#ff7f0e;" x="1245.272727" xlink:href="#m2b14b93827" y="291.905"/>
    </g>
   </g>
   <g id="line2d_52">
    <path clip-path="url(#pae855d0229)" d="M 230.727273 237.799708 
L 255.472284 274.67594 
L 280.217295 274.67594 
L 304.962306 279.270356 
L 329.707317 274.67594 
L 354.452328 274.67594 
L 379.197339 277.497073 
L 403.94235 280.076394 
L 428.687361 277.497073 
L 453.432373 283.139338 
L 478.177384 280.761526 
L 502.922395 280.761526 
L 527.667406 281.648168 
L 552.412417 285.678357 
L 577.157428 281.648168 
L 601.902439 291.199717 
L 626.64745 285.839565 
L 651.392461 283.864772 
L 676.137472 281.68847 
L 700.882483 277.497073 
L 725.627494 281.68847 
L 750.372506 280.761526 
L 775.117517 288.700999 
L 799.862528 289.14432 
L 824.607539 277.497073 
L 849.35255 290.272773 
L 874.097561 289.869754 
L 898.842572 281.648168 
L 923.587583 289.14432 
L 948.332594 280.761526 
L 973.077605 290.433981 
L 997.822616 281.648168 
L 1022.567627 291.401226 
L 1047.312639 291.441528 
L 1072.05765 289.869754 
L 1096.802661 288.700999 
L 1121.547672 292.932698 
L 1146.292683 290.433981 
L 1171.037694 290.433981 
L 1195.782705 291.320622 
L 1220.527716 286.80681 
L 1245.272727 288.821905 
" style="fill:none;stroke:#2ca02c;stroke-linecap:square;stroke-width:1.5;"/>
    <defs>
     <path d="M -3 3 
L 3 3 
L 3 -3 
L -3 -3 
z
" id="m8043101275" style="stroke:#2ca02c;stroke-linejoin:miter;"/>
    </defs>
    <g clip-path="url(#pae855d0229)">
     <use style="fill:#2ca02c;stroke:#2ca02c;stroke-linejoin:miter;" x="230.727273" xlink:href="#m8043101275" y="237.799708"/>
     <use style="fill:#2ca02c;stroke:#2ca02c;stroke-linejoin:miter;" x="255.472284" xlink:href="#m8043101275" y="274.67594"/>
     <use style="fill:#2ca02c;stroke:#2ca02c;stroke-linejoin:miter;" x="280.217295" xlink:href="#m8043101275" y="274.67594"/>
     <use style="fill:#2ca02c;stroke:#2ca02c;stroke-linejoin:miter;" x="304.962306" xlink:href="#m8043101275" y="279.270356"/>
     <use style="fill:#2ca02c;stroke:#2ca02c;stroke-linejoin:miter;" x="329.707317" xlink:href="#m8043101275" y="274.67594"/>
     <use style="fill:#2ca02c;stroke:#2ca02c;stroke-linejoin:miter;" x="354.452328" xlink:href="#m8043101275" y="274.67594"/>
     <use style="fill:#2ca02c;stroke:#2ca02c;stroke-linejoin:miter;" x="379.197339" xlink:href="#m8043101275" y="277.497073"/>
     <use style="fill:#2ca02c;stroke:#2ca02c;stroke-linejoin:miter;" x="403.94235" xlink:href="#m8043101275" y="280.076394"/>
     <use style="fill:#2ca02c;stroke:#2ca02c;stroke-linejoin:miter;" x="428.687361" xlink:href="#m8043101275" y="277.497073"/>
     <use style="fill:#2ca02c;stroke:#2ca02c;stroke-linejoin:miter;" x="453.432373" xlink:href="#m8043101275" y="283.139338"/>
     <use style="fill:#2ca02c;stroke:#2ca02c;stroke-linejoin:miter;" x="478.177384" xlink:href="#m8043101275" y="280.761526"/>
     <use style="fill:#2ca02c;stroke:#2ca02c;stroke-linejoin:miter;" x="502.922395" xlink:href="#m8043101275" y="280.761526"/>
     <use style="fill:#2ca02c;stroke:#2ca02c;stroke-linejoin:miter;" x="527.667406" xlink:href="#m8043101275" y="281.648168"/>
     <use style="fill:#2ca02c;stroke:#2ca02c;stroke-linejoin:miter;" x="552.412417" xlink:href="#m8043101275" y="285.678357"/>
     <use style="fill:#2ca02c;stroke:#2ca02c;stroke-linejoin:miter;" x="577.157428" xlink:href="#m8043101275" y="281.648168"/>
     <use style="fill:#2ca02c;stroke:#2ca02c;stroke-linejoin:miter;" x="601.902439" xlink:href="#m8043101275" y="291.199717"/>
     <use style="fill:#2ca02c;stroke:#2ca02c;stroke-linejoin:miter;" x="626.64745" xlink:href="#m8043101275" y="285.839565"/>
     <use style="fill:#2ca02c;stroke:#2ca02c;stroke-linejoin:miter;" x="651.392461" xlink:href="#m8043101275" y="283.864772"/>
     <use style="fill:#2ca02c;stroke:#2ca02c;stroke-linejoin:miter;" x="676.137472" xlink:href="#m8043101275" y="281.68847"/>
     <use style="fill:#2ca02c;stroke:#2ca02c;stroke-linejoin:miter;" x="700.882483" xlink:href="#m8043101275" y="277.497073"/>
     <use style="fill:#2ca02c;stroke:#2ca02c;stroke-linejoin:miter;" x="725.627494" xlink:href="#m8043101275" y="281.68847"/>
     <use style="fill:#2ca02c;stroke:#2ca02c;stroke-linejoin:miter;" x="750.372506" xlink:href="#m8043101275" y="280.761526"/>
     <use style="fill:#2ca02c;stroke:#2ca02c;stroke-linejoin:miter;" x="775.117517" xlink:href="#m8043101275" y="288.700999"/>
     <use style="fill:#2ca02c;stroke:#2ca02c;stroke-linejoin:miter;" x="799.862528" xlink:href="#m8043101275" y="289.14432"/>
     <use style="fill:#2ca02c;stroke:#2ca02c;stroke-linejoin:miter;" x="824.607539" xlink:href="#m8043101275" y="277.497073"/>
     <use style="fill:#2ca02c;stroke:#2ca02c;stroke-linejoin:miter;" x="849.35255" xlink:href="#m8043101275" y="290.272773"/>
     <use style="fill:#2ca02c;stroke:#2ca02c;stroke-linejoin:miter;" x="874.097561" xlink:href="#m8043101275" y="289.869754"/>
     <use style="fill:#2ca02c;stroke:#2ca02c;stroke-linejoin:miter;" x="898.842572" xlink:href="#m8043101275" y="281.648168"/>
     <use style="fill:#2ca02c;stroke:#2ca02c;stroke-linejoin:miter;" x="923.587583" xlink:href="#m8043101275" y="289.14432"/>
     <use style="fill:#2ca02c;stroke:#2ca02c;stroke-linejoin:miter;" x="948.332594" xlink:href="#m8043101275" y="280.761526"/>
     <use style="fill:#2ca02c;stroke:#2ca02c;stroke-linejoin:miter;" x="973.077605" xlink:href="#m8043101275" y="290.433981"/>
     <use style="fill:#2ca02c;stroke:#2ca02c;stroke-linejoin:miter;" x="997.822616" xlink:href="#m8043101275" y="281.648168"/>
     <use style="fill:#2ca02c;stroke:#2ca02c;stroke-linejoin:miter;" x="1022.567627" xlink:href="#m8043101275" y="291.401226"/>
     <use style="fill:#2ca02c;stroke:#2ca02c;stroke-linejoin:miter;" x="1047.312639" xlink:href="#m8043101275" y="291.441528"/>
     <use style="fill:#2ca02c;stroke:#2ca02c;stroke-linejoin:miter;" x="1072.05765" xlink:href="#m8043101275" y="289.869754"/>
     <use style="fill:#2ca02c;stroke:#2ca02c;stroke-linejoin:miter;" x="1096.802661" xlink:href="#m8043101275" y="288.700999"/>
     <use style="fill:#2ca02c;stroke:#2ca02c;stroke-linejoin:miter;" x="1121.547672" xlink:href="#m8043101275" y="292.932698"/>
     <use style="fill:#2ca02c;stroke:#2ca02c;stroke-linejoin:miter;" x="1146.292683" xlink:href="#m8043101275" y="290.433981"/>
     <use style="fill:#2ca02c;stroke:#2ca02c;stroke-linejoin:miter;" x="1171.037694" xlink:href="#m8043101275" y="290.433981"/>
     <use style="fill:#2ca02c;stroke:#2ca02c;stroke-linejoin:miter;" x="1195.782705" xlink:href="#m8043101275" y="291.320622"/>
     <use style="fill:#2ca02c;stroke:#2ca02c;stroke-linejoin:miter;" x="1220.527716" xlink:href="#m8043101275" y="286.80681"/>
     <use style="fill:#2ca02c;stroke:#2ca02c;stroke-linejoin:miter;" x="1245.272727" xlink:href="#m8043101275" y="288.821905"/>
    </g>
   </g>
   <g id="line2d_53">
    <path clip-path="url(#pae855d0229)" d="M 230.727273 55.554545 
L 255.472284 293.859642 
L 280.217295 301.033379 
L 304.962306 221.598347 
L 329.707317 283.300546 
L 354.452328 289.627943 
L 379.197339 277.416469 
L 403.94235 251.582955 
L 428.687361 295.794133 
L 453.432373 296.841982 
L 478.177384 299.622813 
L 502.922395 184.359397 
L 527.667406 302.323039 
L 552.412417 297.44651 
L 577.157428 282.978131 
L 601.902439 291.078811 
L 626.64745 60.954999 
L 651.392461 97.186401 
L 676.137472 299.622813 
L 700.882483 293.537227 
L 725.627494 302.000624 
L 750.372506 290.837 
L 775.117517 301.637907 
L 799.862528 297.607718 
L 824.607539 302.081228 
L 849.35255 293.295415 
L 874.097561 299.421303 
L 898.842572 301.4767 
L 923.587583 291.965453 
L 948.332594 291.078811 
L 973.077605 302.161832 
L 997.822616 297.043491 
L 1022.567627 289.184622 
L 1047.312639 293.496925 
L 1072.05765 301.678209 
L 1096.802661 301.436398 
L 1121.547672 293.81934 
L 1146.292683 302.645455 
L 1171.037694 295.229906 
L 1195.782705 292.12666 
L 1220.527716 301.879719 
L 1245.272727 286.484395 
" style="fill:none;stroke:#d62728;stroke-linecap:square;stroke-width:1.5;"/>
    <defs>
     <path d="M -0 4.242641 
L 2.545584 0 
L 0 -4.242641 
L -2.545584 -0 
z
" id="m73fd2cb3d2" style="stroke:#d62728;stroke-linejoin:miter;"/>
    </defs>
    <g clip-path="url(#pae855d0229)">
     <use style="fill:#d62728;stroke:#d62728;stroke-linejoin:miter;" x="230.727273" xlink:href="#m73fd2cb3d2" y="55.554545"/>
     <use style="fill:#d62728;stroke:#d62728;stroke-linejoin:miter;" x="255.472284" xlink:href="#m73fd2cb3d2" y="293.859642"/>
     <use style="fill:#d62728;stroke:#d62728;stroke-linejoin:miter;" x="280.217295" xlink:href="#m73fd2cb3d2" y="301.033379"/>
     <use style="fill:#d62728;stroke:#d62728;stroke-linejoin:miter;" x="304.962306" xlink:href="#m73fd2cb3d2" y="221.598347"/>
     <use style="fill:#d62728;stroke:#d62728;stroke-linejoin:miter;" x="329.707317" xlink:href="#m73fd2cb3d2" y="283.300546"/>
     <use style="fill:#d62728;stroke:#d62728;stroke-linejoin:miter;" x="354.452328" xlink:href="#m73fd2cb3d2" y="289.627943"/>
     <use style="fill:#d62728;stroke:#d62728;stroke-linejoin:miter;" x="379.197339" xlink:href="#m73fd2cb3d2" y="277.416469"/>
     <use style="fill:#d62728;stroke:#d62728;stroke-linejoin:miter;" x="403.94235" xlink:href="#m73fd2cb3d2" y="251.582955"/>
     <use style="fill:#d62728;stroke:#d62728;stroke-linejoin:miter;" x="428.687361" xlink:href="#m73fd2cb3d2" y="295.794133"/>
     <use style="fill:#d62728;stroke:#d62728;stroke-linejoin:miter;" x="453.432373" xlink:href="#m73fd2cb3d2" y="296.841982"/>
     <use style="fill:#d62728;stroke:#d62728;stroke-linejoin:miter;" x="478.177384" xlink:href="#m73fd2cb3d2" y="299.622813"/>
     <use style="fill:#d62728;stroke:#d62728;stroke-linejoin:miter;" x="502.922395" xlink:href="#m73fd2cb3d2" y="184.359397"/>
     <use style="fill:#d62728;stroke:#d62728;stroke-linejoin:miter;" x="527.667406" xlink:href="#m73fd2cb3d2" y="302.323039"/>
     <use style="fill:#d62728;stroke:#d62728;stroke-linejoin:miter;" x="552.412417" xlink:href="#m73fd2cb3d2" y="297.44651"/>
     <use style="fill:#d62728;stroke:#d62728;stroke-linejoin:miter;" x="577.157428" xlink:href="#m73fd2cb3d2" y="282.978131"/>
     <use style="fill:#d62728;stroke:#d62728;stroke-linejoin:miter;" x="601.902439" xlink:href="#m73fd2cb3d2" y="291.078811"/>
     <use style="fill:#d62728;stroke:#d62728;stroke-linejoin:miter;" x="626.64745" xlink:href="#m73fd2cb3d2" y="60.954999"/>
     <use style="fill:#d62728;stroke:#d62728;stroke-linejoin:miter;" x="651.392461" xlink:href="#m73fd2cb3d2" y="97.186401"/>
     <use style="fill:#d62728;stroke:#d62728;stroke-linejoin:miter;" x="676.137472" xlink:href="#m73fd2cb3d2" y="299.622813"/>
     <use style="fill:#d62728;stroke:#d62728;stroke-linejoin:miter;" x="700.882483" xlink:href="#m73fd2cb3d2" y="293.537227"/>
     <use style="fill:#d62728;stroke:#d62728;stroke-linejoin:miter;" x="725.627494" xlink:href="#m73fd2cb3d2" y="302.000624"/>
     <use style="fill:#d62728;stroke:#d62728;stroke-linejoin:miter;" x="750.372506" xlink:href="#m73fd2cb3d2" y="290.837"/>
     <use style="fill:#d62728;stroke:#d62728;stroke-linejoin:miter;" x="775.117517" xlink:href="#m73fd2cb3d2" y="301.637907"/>
     <use style="fill:#d62728;stroke:#d62728;stroke-linejoin:miter;" x="799.862528" xlink:href="#m73fd2cb3d2" y="297.607718"/>
     <use style="fill:#d62728;stroke:#d62728;stroke-linejoin:miter;" x="824.607539" xlink:href="#m73fd2cb3d2" y="302.081228"/>
     <use style="fill:#d62728;stroke:#d62728;stroke-linejoin:miter;" x="849.35255" xlink:href="#m73fd2cb3d2" y="293.295415"/>
     <use style="fill:#d62728;stroke:#d62728;stroke-linejoin:miter;" x="874.097561" xlink:href="#m73fd2cb3d2" y="299.421303"/>
     <use style="fill:#d62728;stroke:#d62728;stroke-linejoin:miter;" x="898.842572" xlink:href="#m73fd2cb3d2" y="301.4767"/>
     <use style="fill:#d62728;stroke:#d62728;stroke-linejoin:miter;" x="923.587583" xlink:href="#m73fd2cb3d2" y="291.965453"/>
     <use style="fill:#d62728;stroke:#d62728;stroke-linejoin:miter;" x="948.332594" xlink:href="#m73fd2cb3d2" y="291.078811"/>
     <use style="fill:#d62728;stroke:#d62728;stroke-linejoin:miter;" x="973.077605" xlink:href="#m73fd2cb3d2" y="302.161832"/>
     <use style="fill:#d62728;stroke:#d62728;stroke-linejoin:miter;" x="997.822616" xlink:href="#m73fd2cb3d2" y="297.043491"/>
     <use style="fill:#d62728;stroke:#d62728;stroke-linejoin:miter;" x="1022.567627" xlink:href="#m73fd2cb3d2" y="289.184622"/>
     <use style="fill:#d62728;stroke:#d62728;stroke-linejoin:miter;" x="1047.312639" xlink:href="#m73fd2cb3d2" y="293.496925"/>
     <use style="fill:#d62728;stroke:#d62728;stroke-linejoin:miter;" x="1072.05765" xlink:href="#m73fd2cb3d2" y="301.678209"/>
     <use style="fill:#d62728;stroke:#d62728;stroke-linejoin:miter;" x="1096.802661" xlink:href="#m73fd2cb3d2" y="301.436398"/>
     <use style="fill:#d62728;stroke:#d62728;stroke-linejoin:miter;" x="1121.547672" xlink:href="#m73fd2cb3d2" y="293.81934"/>
     <use style="fill:#d62728;stroke:#d62728;stroke-linejoin:miter;" x="1146.292683" xlink:href="#m73fd2cb3d2" y="302.645455"/>
     <use style="fill:#d62728;stroke:#d62728;stroke-linejoin:miter;" x="1171.037694" xlink:href="#m73fd2cb3d2" y="295.229906"/>
     <use style="fill:#d62728;stroke:#d62728;stroke-linejoin:miter;" x="1195.782705" xlink:href="#m73fd2cb3d2" y="292.12666"/>
     <use style="fill:#d62728;stroke:#d62728;stroke-linejoin:miter;" x="1220.527716" xlink:href="#m73fd2cb3d2" y="301.879719"/>
     <use style="fill:#d62728;stroke:#d62728;stroke-linejoin:miter;" x="1245.272727" xlink:href="#m73fd2cb3d2" y="286.484395"/>
    </g>
   </g>
   <g id="patch_3">
    <path d="M 180 315 
L 180 43.2 
" style="fill:none;stroke:#000000;stroke-linecap:square;stroke-linejoin:miter;stroke-width:0.8;"/>
   </g>
   <g id="patch_4">
    <path d="M 1296 315 
L 1296 43.2 
" style="fill:none;stroke:#000000;stroke-linecap:square;stroke-linejoin:miter;stroke-width:0.8;"/>
   </g>
   <g id="patch_5">
    <path d="M 180 315 
L 1296 315 
" style="fill:none;stroke:#000000;stroke-linecap:square;stroke-linejoin:miter;stroke-width:0.8;"/>
   </g>
   <g id="patch_6">
    <path d="M 180 43.2 
L 1296 43.2 
" style="fill:none;stroke:#000000;stroke-linecap:square;stroke-linejoin:miter;stroke-width:0.8;"/>
   </g>
   <g id="legend_1">
    <g id="patch_7">
     <path d="M 1056.4125 123.255 
L 1287.6 123.255 
Q 1290 123.255 1290 120.855 
L 1290 51.6 
Q 1290 49.2 1287.6 49.2 
L 1056.4125 49.2 
Q 1054.0125 49.2 1054.0125 51.6 
L 1054.0125 120.855 
Q 1054.0125 123.255 1056.4125 123.255 
z
" style="fill:#ffffff;opacity:0.8;stroke:#cccccc;stroke-linejoin:miter;"/>
    </g>
    <g id="line2d_54">
     <path d="M 1058.8125 58.918125 
L 1082.8125 58.918125 
" style="fill:none;stroke:#1f77b4;stroke-linecap:square;stroke-width:1.5;"/>
    </g>
    <g id="line2d_55">
     <g>
      <use style="fill:#1f77b4;stroke:#1f77b4;" x="1070.8125" xlink:href="#m2a511ef052" y="58.918125"/>
     </g>
    </g>
    <g id="text_52">
     <!-- Absolute job number -->
     <defs>
      <path d="M 9.421875 75.984375 
L 18.40625 75.984375 
L 18.40625 0 
L 9.421875 0 
z
" id="DejaVuSans-108"/>
      <path d="M 8.5 21.578125 
L 8.5 54.6875 
L 17.484375 54.6875 
L 17.484375 21.921875 
Q 17.484375 14.15625 20.5 10.265625 
Q 23.53125 6.390625 29.59375 6.390625 
Q 36.859375 6.390625 41.078125 11.03125 
Q 45.3125 15.671875 45.3125 23.6875 
L 45.3125 54.6875 
L 54.296875 54.6875 
L 54.296875 0 
L 45.3125 0 
L 45.3125 8.40625 
Q 42.046875 3.421875 37.71875 1 
Q 33.40625 -1.421875 27.6875 -1.421875 
Q 18.265625 -1.421875 13.375 4.4375 
Q 8.5 10.296875 8.5 21.578125 
z
M 31.109375 56 
z
" id="DejaVuSans-117"/>
      <path d="M 18.3125 70.21875 
L 18.3125 54.6875 
L 36.8125 54.6875 
L 36.8125 47.703125 
L 18.3125 47.703125 
L 18.3125 18.015625 
Q 18.3125 11.328125 20.140625 9.421875 
Q 21.96875 7.515625 27.59375 7.515625 
L 36.8125 7.515625 
L 36.8125 0 
L 27.59375 0 
Q 17.1875 0 13.234375 3.875 
Q 9.28125 7.765625 9.28125 18.015625 
L 9.28125 47.703125 
L 2.6875 47.703125 
L 2.6875 54.6875 
L 9.28125 54.6875 
L 9.28125 70.21875 
z
" id="DejaVuSans-116"/>
      <path d="M 56.203125 29.59375 
L 56.203125 25.203125 
L 14.890625 25.203125 
Q 15.484375 15.921875 20.484375 11.0625 
Q 25.484375 6.203125 34.421875 6.203125 
Q 39.59375 6.203125 44.453125 7.46875 
Q 49.3125 8.734375 54.109375 11.28125 
L 54.109375 2.78125 
Q 49.265625 0.734375 44.1875 -0.34375 
Q 39.109375 -1.421875 33.890625 -1.421875 
Q 20.796875 -1.421875 13.15625 6.1875 
Q 5.515625 13.8125 5.515625 26.8125 
Q 5.515625 40.234375 12.765625 48.109375 
Q 20.015625 56 32.328125 56 
Q 43.359375 56 49.78125 48.890625 
Q 56.203125 41.796875 56.203125 29.59375 
z
M 47.21875 32.234375 
Q 47.125 39.59375 43.09375 43.984375 
Q 39.0625 48.390625 32.421875 48.390625 
Q 24.90625 48.390625 20.390625 44.140625 
Q 15.875 39.890625 15.1875 32.171875 
z
" id="DejaVuSans-101"/>
      <path id="DejaVuSans-32"/>
      <path d="M 9.421875 54.6875 
L 18.40625 54.6875 
L 18.40625 -0.984375 
Q 18.40625 -11.421875 14.421875 -16.109375 
Q 10.453125 -20.796875 1.609375 -20.796875 
L -1.8125 -20.796875 
L -1.8125 -13.1875 
L 0.59375 -13.1875 
Q 5.71875 -13.1875 7.5625 -10.8125 
Q 9.421875 -8.453125 9.421875 -0.984375 
z
M 9.421875 75.984375 
L 18.40625 75.984375 
L 18.40625 64.59375 
L 9.421875 64.59375 
z
" id="DejaVuSans-106"/>
      <path d="M 54.890625 33.015625 
L 54.890625 0 
L 45.90625 0 
L 45.90625 32.71875 
Q 45.90625 40.484375 42.875 44.328125 
Q 39.84375 48.1875 33.796875 48.1875 
Q 26.515625 48.1875 22.3125 43.546875 
Q 18.109375 38.921875 18.109375 30.90625 
L 18.109375 0 
L 9.078125 0 
L 9.078125 54.6875 
L 18.109375 54.6875 
L 18.109375 46.1875 
Q 21.34375 51.125 25.703125 53.5625 
Q 30.078125 56 35.796875 56 
Q 45.21875 56 50.046875 50.171875 
Q 54.890625 44.34375 54.890625 33.015625 
z
" id="DejaVuSans-110"/>
      <path d="M 52 44.1875 
Q 55.375 50.25 60.0625 53.125 
Q 64.75 56 71.09375 56 
Q 79.640625 56 84.28125 50.015625 
Q 88.921875 44.046875 88.921875 33.015625 
L 88.921875 0 
L 79.890625 0 
L 79.890625 32.71875 
Q 79.890625 40.578125 77.09375 44.375 
Q 74.3125 48.1875 68.609375 48.1875 
Q 61.625 48.1875 57.5625 43.546875 
Q 53.515625 38.921875 53.515625 30.90625 
L 53.515625 0 
L 44.484375 0 
L 44.484375 32.71875 
Q 44.484375 40.625 41.703125 44.40625 
Q 38.921875 48.1875 33.109375 48.1875 
Q 26.21875 48.1875 22.15625 43.53125 
Q 18.109375 38.875 18.109375 30.90625 
L 18.109375 0 
L 9.078125 0 
L 9.078125 54.6875 
L 18.109375 54.6875 
L 18.109375 46.1875 
Q 21.1875 51.21875 25.484375 53.609375 
Q 29.78125 56 35.6875 56 
Q 41.65625 56 45.828125 52.96875 
Q 50 49.953125 52 44.1875 
z
" id="DejaVuSans-109"/>
      <path d="M 41.109375 46.296875 
Q 39.59375 47.171875 37.8125 47.578125 
Q 36.03125 48 33.890625 48 
Q 26.265625 48 22.1875 43.046875 
Q 18.109375 38.09375 18.109375 28.8125 
L 18.109375 0 
L 9.078125 0 
L 9.078125 54.6875 
L 18.109375 54.6875 
L 18.109375 46.1875 
Q 20.953125 51.171875 25.484375 53.578125 
Q 30.03125 56 36.53125 56 
Q 37.453125 56 38.578125 55.875 
Q 39.703125 55.765625 41.0625 55.515625 
z
" id="DejaVuSans-114"/>
     </defs>
     <g transform="translate(1092.4125 63.118125)scale(0.12 -0.12)">
      <use xlink:href="#DejaVuSans-65"/>
      <use x="68.408203" xlink:href="#DejaVuSans-98"/>
      <use x="131.884766" xlink:href="#DejaVuSans-115"/>
      <use x="183.984375" xlink:href="#DejaVuSans-111"/>
      <use x="245.166016" xlink:href="#DejaVuSans-108"/>
      <use x="272.949219" xlink:href="#DejaVuSans-117"/>
      <use x="336.328125" xlink:href="#DejaVuSans-116"/>
      <use x="375.537109" xlink:href="#DejaVuSans-101"/>
      <use x="437.060547" xlink:href="#DejaVuSans-32"/>
      <use x="468.847656" xlink:href="#DejaVuSans-106"/>
      <use x="496.630859" xlink:href="#DejaVuSans-111"/>
      <use x="557.8125" xlink:href="#DejaVuSans-98"/>
      <use x="621.289062" xlink:href="#DejaVuSans-32"/>
      <use x="653.076172" xlink:href="#DejaVuSans-110"/>
      <use x="716.455078" xlink:href="#DejaVuSans-117"/>
      <use x="779.833984" xlink:href="#DejaVuSans-109"/>
      <use x="877.246094" xlink:href="#DejaVuSans-98"/>
      <use x="940.722656" xlink:href="#DejaVuSans-101"/>
      <use x="1002.246094" xlink:href="#DejaVuSans-114"/>
     </g>
    </g>
    <g id="line2d_56">
     <path d="M 1058.8125 76.531875 
L 1082.8125 76.531875 
" style="fill:none;stroke:#ff7f0e;stroke-linecap:square;stroke-width:1.5;"/>
    </g>
    <g id="line2d_57">
     <g>
      <use style="fill:#ff7f0e;stroke:#ff7f0e;" x="1070.8125" xlink:href="#m2b14b93827" y="76.531875"/>
     </g>
    </g>
    <g id="text_53">
     <!-- job density -->
     <defs>
      <path d="M 45.40625 46.390625 
L 45.40625 75.984375 
L 54.390625 75.984375 
L 54.390625 0 
L 45.40625 0 
L 45.40625 8.203125 
Q 42.578125 3.328125 38.25 0.953125 
Q 33.9375 -1.421875 27.875 -1.421875 
Q 17.96875 -1.421875 11.734375 6.484375 
Q 5.515625 14.40625 5.515625 27.296875 
Q 5.515625 40.1875 11.734375 48.09375 
Q 17.96875 56 27.875 56 
Q 33.9375 56 38.25 53.625 
Q 42.578125 51.265625 45.40625 46.390625 
z
M 14.796875 27.296875 
Q 14.796875 17.390625 18.875 11.75 
Q 22.953125 6.109375 30.078125 6.109375 
Q 37.203125 6.109375 41.296875 11.75 
Q 45.40625 17.390625 45.40625 27.296875 
Q 45.40625 37.203125 41.296875 42.84375 
Q 37.203125 48.484375 30.078125 48.484375 
Q 22.953125 48.484375 18.875 42.84375 
Q 14.796875 37.203125 14.796875 27.296875 
z
" id="DejaVuSans-100"/>
      <path d="M 9.421875 54.6875 
L 18.40625 54.6875 
L 18.40625 0 
L 9.421875 0 
z
M 9.421875 75.984375 
L 18.40625 75.984375 
L 18.40625 64.59375 
L 9.421875 64.59375 
z
" id="DejaVuSans-105"/>
      <path d="M 32.171875 -5.078125 
Q 28.375 -14.84375 24.75 -17.8125 
Q 21.140625 -20.796875 15.09375 -20.796875 
L 7.90625 -20.796875 
L 7.90625 -13.28125 
L 13.1875 -13.28125 
Q 16.890625 -13.28125 18.9375 -11.515625 
Q 21 -9.765625 23.484375 -3.21875 
L 25.09375 0.875 
L 2.984375 54.6875 
L 12.5 54.6875 
L 29.59375 11.921875 
L 46.6875 54.6875 
L 56.203125 54.6875 
z
" id="DejaVuSans-121"/>
     </defs>
     <g transform="translate(1092.4125 80.731875)scale(0.12 -0.12)">
      <use xlink:href="#DejaVuSans-106"/>
      <use x="27.783203" xlink:href="#DejaVuSans-111"/>
      <use x="88.964844" xlink:href="#DejaVuSans-98"/>
      <use x="152.441406" xlink:href="#DejaVuSans-32"/>
      <use x="184.228516" xlink:href="#DejaVuSans-100"/>
      <use x="247.705078" xlink:href="#DejaVuSans-101"/>
      <use x="309.228516" xlink:href="#DejaVuSans-110"/>
      <use x="372.607422" xlink:href="#DejaVuSans-115"/>
      <use x="424.707031" xlink:href="#DejaVuSans-105"/>
      <use x="452.490234" xlink:href="#DejaVuSans-116"/>
      <use x="491.699219" xlink:href="#DejaVuSans-121"/>
     </g>
    </g>
    <g id="line2d_58">
     <path d="M 1058.8125 94.145625 
L 1082.8125 94.145625 
" style="fill:none;stroke:#2ca02c;stroke-linecap:square;stroke-width:1.5;"/>
    </g>
    <g id="line2d_59">
     <g>
      <use style="fill:#2ca02c;stroke:#2ca02c;stroke-linejoin:miter;" x="1070.8125" xlink:href="#m8043101275" y="94.145625"/>
     </g>
    </g>
    <g id="text_54">
     <!-- max jobs in one OA -->
     <defs>
      <path d="M 34.28125 27.484375 
Q 23.390625 27.484375 19.1875 25 
Q 14.984375 22.515625 14.984375 16.5 
Q 14.984375 11.71875 18.140625 8.90625 
Q 21.296875 6.109375 26.703125 6.109375 
Q 34.1875 6.109375 38.703125 11.40625 
Q 43.21875 16.703125 43.21875 25.484375 
L 43.21875 27.484375 
z
M 52.203125 31.203125 
L 52.203125 0 
L 43.21875 0 
L 43.21875 8.296875 
Q 40.140625 3.328125 35.546875 0.953125 
Q 30.953125 -1.421875 24.3125 -1.421875 
Q 15.921875 -1.421875 10.953125 3.296875 
Q 6 8.015625 6 15.921875 
Q 6 25.140625 12.171875 29.828125 
Q 18.359375 34.515625 30.609375 34.515625 
L 43.21875 34.515625 
L 43.21875 35.40625 
Q 43.21875 41.609375 39.140625 45 
Q 35.0625 48.390625 27.6875 48.390625 
Q 23 48.390625 18.546875 47.265625 
Q 14.109375 46.140625 10.015625 43.890625 
L 10.015625 52.203125 
Q 14.9375 54.109375 19.578125 55.046875 
Q 24.21875 56 28.609375 56 
Q 40.484375 56 46.34375 49.84375 
Q 52.203125 43.703125 52.203125 31.203125 
z
" id="DejaVuSans-97"/>
      <path d="M 54.890625 54.6875 
L 35.109375 28.078125 
L 55.90625 0 
L 45.3125 0 
L 29.390625 21.484375 
L 13.484375 0 
L 2.875 0 
L 24.125 28.609375 
L 4.6875 54.6875 
L 15.28125 54.6875 
L 29.78125 35.203125 
L 44.28125 54.6875 
z
" id="DejaVuSans-120"/>
     </defs>
     <g transform="translate(1092.4125 98.345625)scale(0.12 -0.12)">
      <use xlink:href="#DejaVuSans-109"/>
      <use x="97.412109" xlink:href="#DejaVuSans-97"/>
      <use x="158.691406" xlink:href="#DejaVuSans-120"/>
      <use x="217.871094" xlink:href="#DejaVuSans-32"/>
      <use x="249.658203" xlink:href="#DejaVuSans-106"/>
      <use x="277.441406" xlink:href="#DejaVuSans-111"/>
      <use x="338.623047" xlink:href="#DejaVuSans-98"/>
      <use x="402.099609" xlink:href="#DejaVuSans-115"/>
      <use x="454.199219" xlink:href="#DejaVuSans-32"/>
      <use x="485.986328" xlink:href="#DejaVuSans-105"/>
      <use x="513.769531" xlink:href="#DejaVuSans-110"/>
      <use x="577.148438" xlink:href="#DejaVuSans-32"/>
      <use x="608.935547" xlink:href="#DejaVuSans-111"/>
      <use x="670.117188" xlink:href="#DejaVuSans-110"/>
      <use x="733.496094" xlink:href="#DejaVuSans-101"/>
      <use x="795.019531" xlink:href="#DejaVuSans-32"/>
      <use x="826.806641" xlink:href="#DejaVuSans-79"/>
      <use x="905.501953" xlink:href="#DejaVuSans-65"/>
     </g>
    </g>
    <g id="line2d_60">
     <path d="M 1058.8125 111.759375 
L 1082.8125 111.759375 
" style="fill:none;stroke:#d62728;stroke-linecap:square;stroke-width:1.5;"/>
    </g>
    <g id="line2d_61">
     <g>
      <use style="fill:#d62728;stroke:#d62728;stroke-linejoin:miter;" x="1070.8125" xlink:href="#m73fd2cb3d2" y="111.759375"/>
     </g>
    </g>
    <g id="text_55">
     <!-- Absolute job number from BRES -->
     <defs>
      <path d="M 37.109375 75.984375 
L 37.109375 68.5 
L 28.515625 68.5 
Q 23.6875 68.5 21.796875 66.546875 
Q 19.921875 64.59375 19.921875 59.515625 
L 19.921875 54.6875 
L 34.71875 54.6875 
L 34.71875 47.703125 
L 19.921875 47.703125 
L 19.921875 0 
L 10.890625 0 
L 10.890625 47.703125 
L 2.296875 47.703125 
L 2.296875 54.6875 
L 10.890625 54.6875 
L 10.890625 58.5 
Q 10.890625 67.625 15.140625 71.796875 
Q 19.390625 75.984375 28.609375 75.984375 
z
" id="DejaVuSans-102"/>
      <path d="M 19.671875 34.8125 
L 19.671875 8.109375 
L 35.5 8.109375 
Q 43.453125 8.109375 47.28125 11.40625 
Q 51.125 14.703125 51.125 21.484375 
Q 51.125 28.328125 47.28125 31.5625 
Q 43.453125 34.8125 35.5 34.8125 
z
M 19.671875 64.796875 
L 19.671875 42.828125 
L 34.28125 42.828125 
Q 41.5 42.828125 45.03125 45.53125 
Q 48.578125 48.25 48.578125 53.8125 
Q 48.578125 59.328125 45.03125 62.0625 
Q 41.5 64.796875 34.28125 64.796875 
z
M 9.8125 72.90625 
L 35.015625 72.90625 
Q 46.296875 72.90625 52.390625 68.21875 
Q 58.5 63.53125 58.5 54.890625 
Q 58.5 48.1875 55.375 44.234375 
Q 52.25 40.28125 46.1875 39.3125 
Q 53.46875 37.75 57.5 32.78125 
Q 61.53125 27.828125 61.53125 20.40625 
Q 61.53125 10.640625 54.890625 5.3125 
Q 48.25 0 35.984375 0 
L 9.8125 0 
z
" id="DejaVuSans-66"/>
      <path d="M 44.390625 34.1875 
Q 47.5625 33.109375 50.5625 29.59375 
Q 53.5625 26.078125 56.59375 19.921875 
L 66.609375 0 
L 56 0 
L 46.6875 18.703125 
Q 43.0625 26.03125 39.671875 28.421875 
Q 36.28125 30.8125 30.421875 30.8125 
L 19.671875 30.8125 
L 19.671875 0 
L 9.8125 0 
L 9.8125 72.90625 
L 32.078125 72.90625 
Q 44.578125 72.90625 50.734375 67.671875 
Q 56.890625 62.453125 56.890625 51.90625 
Q 56.890625 45.015625 53.6875 40.46875 
Q 50.484375 35.9375 44.390625 34.1875 
z
M 19.671875 64.796875 
L 19.671875 38.921875 
L 32.078125 38.921875 
Q 39.203125 38.921875 42.84375 42.21875 
Q 46.484375 45.515625 46.484375 51.90625 
Q 46.484375 58.296875 42.84375 61.546875 
Q 39.203125 64.796875 32.078125 64.796875 
z
" id="DejaVuSans-82"/>
     </defs>
     <g transform="translate(1092.4125 115.959375)scale(0.12 -0.12)">
      <use xlink:href="#DejaVuSans-65"/>
      <use x="68.408203" xlink:href="#DejaVuSans-98"/>
      <use x="131.884766" xlink:href="#DejaVuSans-115"/>
      <use x="183.984375" xlink:href="#DejaVuSans-111"/>
      <use x="245.166016" xlink:href="#DejaVuSans-108"/>
      <use x="272.949219" xlink:href="#DejaVuSans-117"/>
      <use x="336.328125" xlink:href="#DejaVuSans-116"/>
      <use x="375.537109" xlink:href="#DejaVuSans-101"/>
      <use x="437.060547" xlink:href="#DejaVuSans-32"/>
      <use x="468.847656" xlink:href="#DejaVuSans-106"/>
      <use x="496.630859" xlink:href="#DejaVuSans-111"/>
      <use x="557.8125" xlink:href="#DejaVuSans-98"/>
      <use x="621.289062" xlink:href="#DejaVuSans-32"/>
      <use x="653.076172" xlink:href="#DejaVuSans-110"/>
      <use x="716.455078" xlink:href="#DejaVuSans-117"/>
      <use x="779.833984" xlink:href="#DejaVuSans-109"/>
      <use x="877.246094" xlink:href="#DejaVuSans-98"/>
      <use x="940.722656" xlink:href="#DejaVuSans-101"/>
      <use x="1002.246094" xlink:href="#DejaVuSans-114"/>
      <use x="1043.359375" xlink:href="#DejaVuSans-32"/>
      <use x="1075.146484" xlink:href="#DejaVuSans-102"/>
      <use x="1110.351562" xlink:href="#DejaVuSans-114"/>
      <use x="1151.433594" xlink:href="#DejaVuSans-111"/>
      <use x="1212.615234" xlink:href="#DejaVuSans-109"/>
      <use x="1310.027344" xlink:href="#DejaVuSans-32"/>
      <use x="1341.814453" xlink:href="#DejaVuSans-66"/>
      <use x="1410.417969" xlink:href="#DejaVuSans-82"/>
      <use x="1479.900391" xlink:href="#DejaVuSans-69"/>
      <use x="1543.083984" xlink:href="#DejaVuSans-83"/>
     </g>
    </g>
   </g>
  </g>
 </g>
 <defs>
  <clipPath id="pae855d0229">
   <rect height="271.8" width="1116" x="180" y="43.2"/>
  </clipPath>
 </defs>
</svg>
